ISO-10303-21;
HEADER;
/* Generated by software containing ST-Developer
 * from STEP Tools, Inc. (www.steptools.com) 
 */

FILE_DESCRIPTION(
/* description */ (''),
/* implementation_level */ '2;1');

FILE_NAME(
/* name */ 'leg.step',
/* time_stamp */ '2026-06-09T23:24:42-04:00',
/* author */ (''),
/* organization */ (''),
/* preprocessor_version */ 'ST-DEVELOPER v20.1',
/* originating_system */ 'Autodesk Translation Framework v15.8.0.0',
/* authorisation */ '');

FILE_SCHEMA (('AUTOMOTIVE_DESIGN { 1 0 10303 214 3 1 1 }'));
ENDSEC;

DATA;
#10=MECHANICAL_DESIGN_GEOMETRIC_PRESENTATION_REPRESENTATION('',(#13,#14),
#1550);
#11=SHAPE_REPRESENTATION_RELATIONSHIP('SRR','None',#1557,#12);
#12=ADVANCED_BREP_SHAPE_REPRESENTATION('',(#15,#16),#1549);
#13=STYLED_ITEM('',(#1566),#15);
#14=STYLED_ITEM('',(#1566),#16);
#15=MANIFOLD_SOLID_BREP('Body3',#726);
#16=MANIFOLD_SOLID_BREP('Body5',#727);
#17=B_SPLINE_SURFACE_WITH_KNOTS('',3,3,((#1160,#1161,#1162,#1163,#1164,
#1165),(#1166,#1167,#1168,#1169,#1170,#1171),(#1172,#1173,#1174,#1175,#1176,
#1177),(#1178,#1179,#1180,#1181,#1182,#1183),(#1184,#1185,#1186,#1187,#1188,
#1189),(#1190,#1191,#1192,#1193,#1194,#1195),(#1196,#1197,#1198,#1199,#1200,
#1201),(#1202,#1203,#1204,#1205,#1206,#1207),(#1208,#1209,#1210,#1211,#1212,
#1213),(#1214,#1215,#1216,#1217,#1218,#1219),(#1220,#1221,#1222,#1223,#1224,
#1225),(#1226,#1227,#1228,#1229,#1230,#1231),(#1232,#1233,#1234,#1235,#1236,
#1237),(#1238,#1239,#1240,#1241,#1242,#1243),(#1244,#1245,#1246,#1247,#1248,
#1249),(#1250,#1251,#1252,#1253,#1254,#1255),(#1256,#1257,#1258,#1259,#1260,
#1261),(#1262,#1263,#1264,#1265,#1266,#1267),(#1268,#1269,#1270,#1271,#1272,
#1273),(#1274,#1275,#1276,#1277,#1278,#1279),(#1280,#1281,#1282,#1283,#1284,
#1285),(#1286,#1287,#1288,#1289,#1290,#1291)),.UNSPECIFIED.,.T.,.F.,.F.,
(4,1,1,1,2,1,1,1,2,1,1,1,2,1,1,1,4),(4,2,4),(0.,0.0625,0.125,0.1875,0.25,
0.3125,0.375,0.4375,0.5,0.5625,0.625,0.6875,0.75,0.8125,0.875,0.9375,1.),
(0.,0.320298213167026,0.43277087713471),.UNSPECIFIED.);
#18=B_SPLINE_SURFACE_WITH_KNOTS('',3,3,((#1300,#1301,#1302,#1303,#1304,
#1305),(#1306,#1307,#1308,#1309,#1310,#1311),(#1312,#1313,#1314,#1315,#1316,
#1317),(#1318,#1319,#1320,#1321,#1322,#1323),(#1324,#1325,#1326,#1327,#1328,
#1329),(#1330,#1331,#1332,#1333,#1334,#1335),(#1336,#1337,#1338,#1339,#1340,
#1341),(#1342,#1343,#1344,#1345,#1346,#1347),(#1348,#1349,#1350,#1351,#1352,
#1353),(#1354,#1355,#1356,#1357,#1358,#1359),(#1360,#1361,#1362,#1363,#1364,
#1365),(#1366,#1367,#1368,#1369,#1370,#1371),(#1372,#1373,#1374,#1375,#1376,
#1377),(#1378,#1379,#1380,#1381,#1382,#1383),(#1384,#1385,#1386,#1387,#1388,
#1389),(#1390,#1391,#1392,#1393,#1394,#1395),(#1396,#1397,#1398,#1399,#1400,
#1401),(#1402,#1403,#1404,#1405,#1406,#1407),(#1408,#1409,#1410,#1411,#1412,
#1413),(#1414,#1415,#1416,#1417,#1418,#1419),(#1420,#1421,#1422,#1423,#1424,
#1425),(#1426,#1427,#1428,#1429,#1430,#1431)),.UNSPECIFIED.,.T.,.F.,.F.,
(4,1,1,1,2,1,1,1,2,1,1,1,2,1,1,1,4),(4,2,4),(0.,0.0625,0.125,0.1875,0.25,
0.3125,0.375,0.4375,0.5,0.5625,0.625,0.6875,0.75,0.8125,0.875,0.9375,1.),
(0.,0.320298213167026,1.),.UNSPECIFIED.);
#19=B_SPLINE_CURVE_WITH_KNOTS('',3,(#1088,#1089,#1090,#1091,#1092,#1093,
#1094,#1095,#1096,#1097,#1098,#1099),.UNSPECIFIED.,.F.,.F.,(4,2,2,2,2,4),
(-1.75312469292709,-1.44917260161445,-1.14692718398612,-0.724369147832649,
-0.284328293814204,0.),.UNSPECIFIED.);
#20=B_SPLINE_CURVE_WITH_KNOTS('',3,(#1101,#1102,#1103,#1104,#1105,#1106,
#1107,#1108),.UNSPECIFIED.,.F.,.F.,(4,2,2,4),(-1.00909247748258,-0.912350071711259,
-0.45055217847349,0.),.UNSPECIFIED.);
#21=B_SPLINE_CURVE_WITH_KNOTS('',3,(#1110,#1111,#1112,#1113,#1114,#1115,
#1116,#1117,#1118,#1119),.UNSPECIFIED.,.F.,.F.,(4,2,2,2,4),(-2.39684817891558,
-2.1079111093536,-1.85751385935056,-1.39587249686859,-1.00909247748258),
 .UNSPECIFIED.);
#22=B_SPLINE_CURVE_WITH_KNOTS('',3,(#1121,#1122,#1123,#1124,#1125,#1126,
#1127,#1128,#1129,#1130,#1131,#1132),.UNSPECIFIED.,.F.,.F.,(4,2,2,2,2,4),
(-1.61410346249053,-1.19777389161,-0.928815184629588,-0.70245687909744,
-0.435840437611171,0.),.UNSPECIFIED.);
#23=B_SPLINE_CURVE_WITH_KNOTS('',3,(#1134,#1135,#1136,#1137,#1138,#1139,
#1140,#1141),.UNSPECIFIED.,.F.,.F.,(4,2,2,4),(-1.17782190392539,-0.8930142748244,
-0.435474770887761,0.),.UNSPECIFIED.);
#24=B_SPLINE_CURVE_WITH_KNOTS('',3,(#1145,#1146,#1147,#1148,#1149,#1150,
#1151,#1152,#1153,#1154),.UNSPECIFIED.,.F.,.F.,(4,2,2,2,4),(-2.39696462684038,
-2.17108566990104,-1.93694304996892,-1.39778057123543,-1.17782190392539),
 .UNSPECIFIED.);
#25=B_SPLINE_CURVE_WITH_KNOTS('',3,(#1293,#1294,#1295,#1296,#1297,#1298),
 .UNSPECIFIED.,.F.,.F.,(4,2,4),(0.,0.320298213167026,0.338397380582422),
 .UNSPECIFIED.);
#26=B_SPLINE_CURVE_WITH_KNOTS('',3,(#1433,#1434,#1435,#1436,#1437,#1438),
 .UNSPECIFIED.,.F.,.F.,(4,2,4),(0.,0.320298213167026,1.),.UNSPECIFIED.);
#27=FACE_BOUND('',#114,.T.);
#28=FACE_BOUND('',#115,.T.);
#29=FACE_BOUND('',#116,.T.);
#30=FACE_BOUND('',#117,.T.);
#31=FACE_BOUND('',#122,.T.);
#32=FACE_BOUND('',#123,.T.);
#33=FACE_BOUND('',#125,.T.);
#34=FACE_BOUND('',#126,.T.);
#35=FACE_BOUND('',#134,.T.);
#36=FACE_BOUND('',#135,.T.);
#37=FACE_BOUND('',#136,.T.);
#38=FACE_BOUND('',#137,.T.);
#39=FACE_BOUND('',#142,.T.);
#40=FACE_BOUND('',#143,.T.);
#41=FACE_BOUND('',#145,.T.);
#42=FACE_BOUND('',#146,.T.);
#43=FACE_BOUND('',#164,.T.);
#44=FACE_BOUND('',#165,.T.);
#45=FACE_BOUND('',#166,.T.);
#46=FACE_BOUND('',#167,.T.);
#47=PLANE('',#753);
#48=PLANE('',#756);
#49=PLANE('',#757);
#50=PLANE('',#758);
#51=PLANE('',#759);
#52=PLANE('',#761);
#53=PLANE('',#765);
#54=PLANE('',#766);
#55=PLANE('',#767);
#56=PLANE('',#769);
#57=PLANE('',#776);
#58=PLANE('',#777);
#59=PLANE('',#778);
#60=PLANE('',#779);
#61=PLANE('',#784);
#62=PLANE('',#804);
#63=PLANE('',#805);
#64=PLANE('',#806);
#65=PLANE('',#807);
#66=PLANE('',#810);
#67=PLANE('',#811);
#68=PLANE('',#812);
#69=PLANE('',#813);
#70=FACE_OUTER_BOUND('',#109,.T.);
#71=FACE_OUTER_BOUND('',#110,.T.);
#72=FACE_OUTER_BOUND('',#111,.T.);
#73=FACE_OUTER_BOUND('',#112,.T.);
#74=FACE_OUTER_BOUND('',#113,.T.);
#75=FACE_OUTER_BOUND('',#118,.T.);
#76=FACE_OUTER_BOUND('',#119,.T.);
#77=FACE_OUTER_BOUND('',#120,.T.);
#78=FACE_OUTER_BOUND('',#121,.T.);
#79=FACE_OUTER_BOUND('',#124,.T.);
#80=FACE_OUTER_BOUND('',#127,.T.);
#81=FACE_OUTER_BOUND('',#128,.T.);
#82=FACE_OUTER_BOUND('',#129,.T.);
#83=FACE_OUTER_BOUND('',#130,.T.);
#84=FACE_OUTER_BOUND('',#131,.T.);
#85=FACE_OUTER_BOUND('',#132,.T.);
#86=FACE_OUTER_BOUND('',#133,.T.);
#87=FACE_OUTER_BOUND('',#138,.T.);
#88=FACE_OUTER_BOUND('',#139,.T.);
#89=FACE_OUTER_BOUND('',#140,.T.);
#90=FACE_OUTER_BOUND('',#141,.T.);
#91=FACE_OUTER_BOUND('',#144,.T.);
#92=FACE_OUTER_BOUND('',#147,.T.);
#93=FACE_OUTER_BOUND('',#148,.T.);
#94=FACE_OUTER_BOUND('',#149,.T.);
#95=FACE_OUTER_BOUND('',#150,.T.);
#96=FACE_OUTER_BOUND('',#151,.T.);
#97=FACE_OUTER_BOUND('',#152,.T.);
#98=FACE_OUTER_BOUND('',#153,.T.);
#99=FACE_OUTER_BOUND('',#154,.T.);
#100=FACE_OUTER_BOUND('',#155,.T.);
#101=FACE_OUTER_BOUND('',#156,.T.);
#102=FACE_OUTER_BOUND('',#157,.T.);
#103=FACE_OUTER_BOUND('',#158,.T.);
#104=FACE_OUTER_BOUND('',#159,.T.);
#105=FACE_OUTER_BOUND('',#160,.T.);
#106=FACE_OUTER_BOUND('',#161,.T.);
#107=FACE_OUTER_BOUND('',#162,.T.);
#108=FACE_OUTER_BOUND('',#163,.T.);
#109=EDGE_LOOP('',(#477,#478,#479,#480));
#110=EDGE_LOOP('',(#481,#482,#483,#484));
#111=EDGE_LOOP('',(#485,#486,#487,#488));
#112=EDGE_LOOP('',(#489,#490,#491,#492));
#113=EDGE_LOOP('',(#493,#494,#495,#496,#497,#498,#499,#500));
#114=EDGE_LOOP('',(#501));
#115=EDGE_LOOP('',(#502));
#116=EDGE_LOOP('',(#503));
#117=EDGE_LOOP('',(#504));
#118=EDGE_LOOP('',(#505,#506,#507,#508));
#119=EDGE_LOOP('',(#509,#510,#511,#512));
#120=EDGE_LOOP('',(#513,#514,#515,#516));
#121=EDGE_LOOP('',(#517,#518,#519,#520));
#122=EDGE_LOOP('',(#521));
#123=EDGE_LOOP('',(#522));
#124=EDGE_LOOP('',(#523,#524,#525,#526,#527));
#125=EDGE_LOOP('',(#528));
#126=EDGE_LOOP('',(#529));
#127=EDGE_LOOP('',(#530,#531,#532,#533,#534,#535,#536,#537,#538,#539,#540,
#541,#542,#543,#544,#545,#546));
#128=EDGE_LOOP('',(#547,#548,#549,#550));
#129=EDGE_LOOP('',(#551,#552,#553,#554));
#130=EDGE_LOOP('',(#555,#556,#557,#558));
#131=EDGE_LOOP('',(#559,#560,#561,#562,#563,#564,#565,#566,#567));
#132=EDGE_LOOP('',(#568,#569,#570));
#133=EDGE_LOOP('',(#571,#572,#573,#574,#575,#576,#577,#578));
#134=EDGE_LOOP('',(#579));
#135=EDGE_LOOP('',(#580));
#136=EDGE_LOOP('',(#581));
#137=EDGE_LOOP('',(#582));
#138=EDGE_LOOP('',(#583,#584,#585,#586));
#139=EDGE_LOOP('',(#587,#588,#589,#590));
#140=EDGE_LOOP('',(#591,#592,#593,#594));
#141=EDGE_LOOP('',(#595,#596,#597,#598,#599));
#142=EDGE_LOOP('',(#600));
#143=EDGE_LOOP('',(#601));
#144=EDGE_LOOP('',(#602,#603,#604,#605));
#145=EDGE_LOOP('',(#606));
#146=EDGE_LOOP('',(#607));
#147=EDGE_LOOP('',(#608,#609,#610,#611));
#148=EDGE_LOOP('',(#612,#613,#614,#615));
#149=EDGE_LOOP('',(#616,#617,#618,#619));
#150=EDGE_LOOP('',(#620,#621,#622,#623));
#151=EDGE_LOOP('',(#624,#625,#626,#627));
#152=EDGE_LOOP('',(#628,#629,#630,#631));
#153=EDGE_LOOP('',(#632,#633,#634,#635));
#154=EDGE_LOOP('',(#636,#637,#638,#639));
#155=EDGE_LOOP('',(#640));
#156=EDGE_LOOP('',(#641));
#157=EDGE_LOOP('',(#642));
#158=EDGE_LOOP('',(#643));
#159=EDGE_LOOP('',(#644,#645,#646,#647,#648,#649,#650,#651,#652,#653,#654,
#655));
#160=EDGE_LOOP('',(#656,#657,#658,#659));
#161=EDGE_LOOP('',(#660,#661,#662,#663));
#162=EDGE_LOOP('',(#664,#665,#666,#667));
#163=EDGE_LOOP('',(#668));
#164=EDGE_LOOP('',(#669));
#165=EDGE_LOOP('',(#670));
#166=EDGE_LOOP('',(#671));
#167=EDGE_LOOP('',(#672));
#168=LINE('',#1021,#222);
#169=LINE('',#1027,#223);
#170=LINE('',#1033,#224);
#171=LINE('',#1039,#225);
#172=LINE('',#1044,#226);
#173=LINE('',#1046,#227);
#174=LINE('',#1050,#228);
#175=LINE('',#1052,#229);
#176=LINE('',#1054,#230);
#177=LINE('',#1057,#231);
#178=LINE('',#1060,#232);
#179=LINE('',#1062,#233);
#180=LINE('',#1063,#234);
#181=LINE('',#1066,#235);
#182=LINE('',#1067,#236);
#183=LINE('',#1070,#237);
#184=LINE('',#1071,#238);
#185=LINE('',#1077,#239);
#186=LINE('',#1079,#240);
#187=LINE('',#1084,#241);
#188=LINE('',#1142,#242);
#189=LINE('',#1143,#243);
#190=LINE('',#1144,#244);
#191=LINE('',#1156,#245);
#192=LINE('',#1158,#246);
#193=LINE('',#1442,#247);
#194=LINE('',#1444,#248);
#195=LINE('',#1448,#249);
#196=LINE('',#1450,#250);
#197=LINE('',#1452,#251);
#198=LINE('',#1455,#252);
#199=LINE('',#1466,#253);
#200=LINE('',#1468,#254);
#201=LINE('',#1469,#255);
#202=LINE('',#1472,#256);
#203=LINE('',#1473,#257);
#204=LINE('',#1476,#258);
#205=LINE('',#1477,#259);
#206=LINE('',#1481,#260);
#207=LINE('',#1483,#261);
#208=LINE('',#1488,#262);
#209=LINE('',#1500,#263);
#210=LINE('',#1502,#264);
#211=LINE('',#1504,#265);
#212=LINE('',#1506,#266);
#213=LINE('',#1511,#267);
#214=LINE('',#1517,#268);
#215=LINE('',#1523,#269);
#216=LINE('',#1529,#270);
#217=LINE('',#1538,#271);
#218=LINE('',#1539,#272);
#219=LINE('',#1540,#273);
#220=LINE('',#1542,#274);
#221=LINE('',#1544,#275);
#222=VECTOR('',#820,0.165);
#223=VECTOR('',#827,0.165);
#224=VECTOR('',#834,0.165);
#225=VECTOR('',#841,0.165);
#226=VECTOR('',#846,1.);
#227=VECTOR('',#847,1.);
#228=VECTOR('',#850,1.);
#229=VECTOR('',#851,1.);
#230=VECTOR('',#852,1.);
#231=VECTOR('',#855,1.);
#232=VECTOR('',#858,1.);
#233=VECTOR('',#859,1.);
#234=VECTOR('',#860,1.);
#235=VECTOR('',#863,1.);
#236=VECTOR('',#864,1.);
#237=VECTOR('',#867,1.);
#238=VECTOR('',#868,1.);
#239=VECTOR('',#875,1.);
#240=VECTOR('',#876,1.);
#241=VECTOR('',#881,1.);
#242=VECTOR('',#884,1.25);
#243=VECTOR('',#885,1.);
#244=VECTOR('',#886,1.);
#245=VECTOR('',#889,1.);
#246=VECTOR('',#892,1.);
#247=VECTOR('',#899,1.);
#248=VECTOR('',#900,1.);
#249=VECTOR('',#903,1.);
#250=VECTOR('',#904,1.);
#251=VECTOR('',#905,1.);
#252=VECTOR('',#908,1.);
#253=VECTOR('',#919,1.);
#254=VECTOR('',#920,1.);
#255=VECTOR('',#921,1.);
#256=VECTOR('',#924,1.);
#257=VECTOR('',#925,1.);
#258=VECTOR('',#928,1.);
#259=VECTOR('',#929,1.);
#260=VECTOR('',#932,1.);
#261=VECTOR('',#933,1.);
#262=VECTOR('',#938,1.);
#263=VECTOR('',#953,0.165);
#264=VECTOR('',#956,0.165);
#265=VECTOR('',#959,0.165);
#266=VECTOR('',#962,0.165);
#267=VECTOR('',#967,0.154);
#268=VECTOR('',#974,0.154);
#269=VECTOR('',#981,0.154);
#270=VECTOR('',#988,0.154);
#271=VECTOR('',#1003,1.25);
#272=VECTOR('',#1004,1.);
#273=VECTOR('',#1005,1.);
#274=VECTOR('',#1008,1.);
#275=VECTOR('',#1011,1.);
#276=CIRCLE('',#742,0.165);
#277=CIRCLE('',#743,0.165);
#278=CIRCLE('',#745,0.165);
#279=CIRCLE('',#746,0.165);
#280=CIRCLE('',#748,0.165);
#281=CIRCLE('',#749,0.165);
#282=CIRCLE('',#751,0.165);
#283=CIRCLE('',#752,0.165);
#284=CIRCLE('',#754,1.25);
#285=CIRCLE('',#755,1.25);
#286=CIRCLE('',#760,1.25);
#287=CIRCLE('',#762,1.25);
#288=CIRCLE('',#763,1.25);
#289=CIRCLE('',#768,1.4);
#290=CIRCLE('',#770,1.25);
#291=CIRCLE('',#771,1.25);
#292=CIRCLE('',#772,0.165);
#293=CIRCLE('',#773,0.165);
#294=CIRCLE('',#774,0.165);
#295=CIRCLE('',#775,0.165);
#296=CIRCLE('',#780,1.25);
#297=CIRCLE('',#781,1.25);
#298=CIRCLE('',#782,0.165);
#299=CIRCLE('',#783,0.165);
#300=CIRCLE('',#785,1.25);
#301=CIRCLE('',#786,0.165);
#302=CIRCLE('',#787,0.165);
#303=CIRCLE('',#793,0.154);
#304=CIRCLE('',#794,0.154);
#305=CIRCLE('',#796,0.154);
#306=CIRCLE('',#797,0.154);
#307=CIRCLE('',#799,0.154);
#308=CIRCLE('',#800,0.154);
#309=CIRCLE('',#802,0.154);
#310=CIRCLE('',#803,0.154);
#311=CIRCLE('',#809,1.25);
#312=VERTEX_POINT('',#1018);
#313=VERTEX_POINT('',#1020);
#314=VERTEX_POINT('',#1024);
#315=VERTEX_POINT('',#1026);
#316=VERTEX_POINT('',#1030);
#317=VERTEX_POINT('',#1032);
#318=VERTEX_POINT('',#1036);
#319=VERTEX_POINT('',#1038);
#320=VERTEX_POINT('',#1042);
#321=VERTEX_POINT('',#1043);
#322=VERTEX_POINT('',#1045);
#323=VERTEX_POINT('',#1047);
#324=VERTEX_POINT('',#1049);
#325=VERTEX_POINT('',#1051);
#326=VERTEX_POINT('',#1053);
#327=VERTEX_POINT('',#1055);
#328=VERTEX_POINT('',#1059);
#329=VERTEX_POINT('',#1061);
#330=VERTEX_POINT('',#1065);
#331=VERTEX_POINT('',#1069);
#332=VERTEX_POINT('',#1075);
#333=VERTEX_POINT('',#1076);
#334=VERTEX_POINT('',#1078);
#335=VERTEX_POINT('',#1080);
#336=VERTEX_POINT('',#1082);
#337=VERTEX_POINT('',#1086);
#338=VERTEX_POINT('',#1087);
#339=VERTEX_POINT('',#1100);
#340=VERTEX_POINT('',#1109);
#341=VERTEX_POINT('',#1120);
#342=VERTEX_POINT('',#1133);
#343=VERTEX_POINT('',#1292);
#344=VERTEX_POINT('',#1432);
#345=VERTEX_POINT('',#1440);
#346=VERTEX_POINT('',#1441);
#347=VERTEX_POINT('',#1443);
#348=VERTEX_POINT('',#1445);
#349=VERTEX_POINT('',#1447);
#350=VERTEX_POINT('',#1449);
#351=VERTEX_POINT('',#1451);
#352=VERTEX_POINT('',#1453);
#353=VERTEX_POINT('',#1456);
#354=VERTEX_POINT('',#1458);
#355=VERTEX_POINT('',#1460);
#356=VERTEX_POINT('',#1462);
#357=VERTEX_POINT('',#1465);
#358=VERTEX_POINT('',#1467);
#359=VERTEX_POINT('',#1471);
#360=VERTEX_POINT('',#1475);
#361=VERTEX_POINT('',#1479);
#362=VERTEX_POINT('',#1480);
#363=VERTEX_POINT('',#1482);
#364=VERTEX_POINT('',#1484);
#365=VERTEX_POINT('',#1486);
#366=VERTEX_POINT('',#1489);
#367=VERTEX_POINT('',#1491);
#368=VERTEX_POINT('',#1495);
#369=VERTEX_POINT('',#1497);
#370=VERTEX_POINT('',#1508);
#371=VERTEX_POINT('',#1510);
#372=VERTEX_POINT('',#1514);
#373=VERTEX_POINT('',#1516);
#374=VERTEX_POINT('',#1520);
#375=VERTEX_POINT('',#1522);
#376=VERTEX_POINT('',#1526);
#377=VERTEX_POINT('',#1528);
#378=VERTEX_POINT('',#1536);
#379=EDGE_CURVE('',#312,#312,#276,.T.);
#380=EDGE_CURVE('',#312,#313,#168,.T.);
#381=EDGE_CURVE('',#313,#313,#277,.T.);
#382=EDGE_CURVE('',#314,#314,#278,.T.);
#383=EDGE_CURVE('',#314,#315,#169,.T.);
#384=EDGE_CURVE('',#315,#315,#279,.T.);
#385=EDGE_CURVE('',#316,#316,#280,.T.);
#386=EDGE_CURVE('',#316,#317,#170,.T.);
#387=EDGE_CURVE('',#317,#317,#281,.T.);
#388=EDGE_CURVE('',#318,#318,#282,.T.);
#389=EDGE_CURVE('',#318,#319,#171,.T.);
#390=EDGE_CURVE('',#319,#319,#283,.T.);
#391=EDGE_CURVE('',#320,#321,#172,.T.);
#392=EDGE_CURVE('',#322,#320,#173,.T.);
#393=EDGE_CURVE('',#323,#322,#284,.T.);
#394=EDGE_CURVE('',#324,#323,#174,.T.);
#395=EDGE_CURVE('',#325,#324,#175,.T.);
#396=EDGE_CURVE('',#326,#325,#176,.T.);
#397=EDGE_CURVE('',#327,#326,#285,.T.);
#398=EDGE_CURVE('',#321,#327,#177,.T.);
#399=EDGE_CURVE('',#325,#328,#178,.T.);
#400=EDGE_CURVE('',#329,#328,#179,.T.);
#401=EDGE_CURVE('',#326,#329,#180,.T.);
#402=EDGE_CURVE('',#330,#324,#181,.T.);
#403=EDGE_CURVE('',#328,#330,#182,.T.);
#404=EDGE_CURVE('',#323,#331,#183,.T.);
#405=EDGE_CURVE('',#330,#331,#184,.T.);
#406=EDGE_CURVE('',#329,#331,#286,.T.);
#407=EDGE_CURVE('',#332,#333,#185,.T.);
#408=EDGE_CURVE('',#333,#334,#186,.T.);
#409=EDGE_CURVE('',#335,#334,#287,.T.);
#410=EDGE_CURVE('',#336,#335,#288,.T.);
#411=EDGE_CURVE('',#336,#332,#187,.T.);
#412=EDGE_CURVE('',#337,#338,#19,.T.);
#413=EDGE_CURVE('',#339,#337,#20,.T.);
#414=EDGE_CURVE('',#340,#339,#21,.T.);
#415=EDGE_CURVE('',#341,#340,#22,.T.);
#416=EDGE_CURVE('',#342,#341,#23,.T.);
#417=EDGE_CURVE('',#342,#335,#188,.T.);
#418=EDGE_CURVE('',#327,#334,#189,.T.);
#419=EDGE_CURVE('',#322,#336,#190,.T.);
#420=EDGE_CURVE('',#338,#342,#24,.T.);
#421=EDGE_CURVE('',#320,#332,#191,.T.);
#422=EDGE_CURVE('',#333,#321,#192,.T.);
#423=EDGE_CURVE('',#343,#339,#25,.T.);
#424=EDGE_CURVE('',#343,#343,#289,.T.);
#425=EDGE_CURVE('',#343,#344,#26,.T.);
#426=EDGE_CURVE('',#345,#346,#193,.T.);
#427=EDGE_CURVE('',#347,#345,#194,.T.);
#428=EDGE_CURVE('',#348,#347,#290,.T.);
#429=EDGE_CURVE('',#349,#348,#195,.T.);
#430=EDGE_CURVE('',#350,#349,#196,.T.);
#431=EDGE_CURVE('',#351,#350,#197,.T.);
#432=EDGE_CURVE('',#352,#351,#291,.T.);
#433=EDGE_CURVE('',#346,#352,#198,.T.);
#434=EDGE_CURVE('',#353,#353,#292,.T.);
#435=EDGE_CURVE('',#354,#354,#293,.T.);
#436=EDGE_CURVE('',#355,#355,#294,.T.);
#437=EDGE_CURVE('',#356,#356,#295,.T.);
#438=EDGE_CURVE('',#350,#357,#199,.T.);
#439=EDGE_CURVE('',#358,#357,#200,.T.);
#440=EDGE_CURVE('',#351,#358,#201,.T.);
#441=EDGE_CURVE('',#359,#349,#202,.T.);
#442=EDGE_CURVE('',#357,#359,#203,.T.);
#443=EDGE_CURVE('',#348,#360,#204,.T.);
#444=EDGE_CURVE('',#359,#360,#205,.T.);
#445=EDGE_CURVE('',#361,#362,#206,.T.);
#446=EDGE_CURVE('',#362,#363,#207,.T.);
#447=EDGE_CURVE('',#364,#363,#296,.T.);
#448=EDGE_CURVE('',#365,#364,#297,.T.);
#449=EDGE_CURVE('',#365,#361,#208,.T.);
#450=EDGE_CURVE('',#366,#366,#298,.T.);
#451=EDGE_CURVE('',#367,#367,#299,.T.);
#452=EDGE_CURVE('',#358,#360,#300,.T.);
#453=EDGE_CURVE('',#368,#368,#301,.T.);
#454=EDGE_CURVE('',#369,#369,#302,.T.);
#455=EDGE_CURVE('',#353,#368,#209,.T.);
#456=EDGE_CURVE('',#354,#369,#210,.T.);
#457=EDGE_CURVE('',#366,#355,#211,.T.);
#458=EDGE_CURVE('',#367,#356,#212,.T.);
#459=EDGE_CURVE('',#370,#370,#303,.T.);
#460=EDGE_CURVE('',#370,#371,#213,.T.);
#461=EDGE_CURVE('',#371,#371,#304,.T.);
#462=EDGE_CURVE('',#372,#372,#305,.T.);
#463=EDGE_CURVE('',#372,#373,#214,.T.);
#464=EDGE_CURVE('',#373,#373,#306,.T.);
#465=EDGE_CURVE('',#374,#374,#307,.T.);
#466=EDGE_CURVE('',#374,#375,#215,.T.);
#467=EDGE_CURVE('',#375,#375,#308,.T.);
#468=EDGE_CURVE('',#376,#376,#309,.T.);
#469=EDGE_CURVE('',#376,#377,#216,.T.);
#470=EDGE_CURVE('',#377,#377,#310,.T.);
#471=EDGE_CURVE('',#378,#378,#311,.T.);
#472=EDGE_CURVE('',#378,#364,#217,.T.);
#473=EDGE_CURVE('',#352,#363,#218,.T.);
#474=EDGE_CURVE('',#347,#365,#219,.T.);
#475=EDGE_CURVE('',#345,#361,#220,.T.);
#476=EDGE_CURVE('',#362,#346,#221,.T.);
#477=ORIENTED_EDGE('',*,*,#379,.F.);
#478=ORIENTED_EDGE('',*,*,#380,.T.);
#479=ORIENTED_EDGE('',*,*,#381,.F.);
#480=ORIENTED_EDGE('',*,*,#380,.F.);
#481=ORIENTED_EDGE('',*,*,#382,.F.);
#482=ORIENTED_EDGE('',*,*,#383,.T.);
#483=ORIENTED_EDGE('',*,*,#384,.F.);
#484=ORIENTED_EDGE('',*,*,#383,.F.);
#485=ORIENTED_EDGE('',*,*,#385,.F.);
#486=ORIENTED_EDGE('',*,*,#386,.T.);
#487=ORIENTED_EDGE('',*,*,#387,.F.);
#488=ORIENTED_EDGE('',*,*,#386,.F.);
#489=ORIENTED_EDGE('',*,*,#388,.F.);
#490=ORIENTED_EDGE('',*,*,#389,.T.);
#491=ORIENTED_EDGE('',*,*,#390,.F.);
#492=ORIENTED_EDGE('',*,*,#389,.F.);
#493=ORIENTED_EDGE('',*,*,#391,.F.);
#494=ORIENTED_EDGE('',*,*,#392,.F.);
#495=ORIENTED_EDGE('',*,*,#393,.F.);
#496=ORIENTED_EDGE('',*,*,#394,.F.);
#497=ORIENTED_EDGE('',*,*,#395,.F.);
#498=ORIENTED_EDGE('',*,*,#396,.F.);
#499=ORIENTED_EDGE('',*,*,#397,.F.);
#500=ORIENTED_EDGE('',*,*,#398,.F.);
#501=ORIENTED_EDGE('',*,*,#379,.T.);
#502=ORIENTED_EDGE('',*,*,#382,.T.);
#503=ORIENTED_EDGE('',*,*,#387,.T.);
#504=ORIENTED_EDGE('',*,*,#390,.T.);
#505=ORIENTED_EDGE('',*,*,#396,.T.);
#506=ORIENTED_EDGE('',*,*,#399,.T.);
#507=ORIENTED_EDGE('',*,*,#400,.F.);
#508=ORIENTED_EDGE('',*,*,#401,.F.);
#509=ORIENTED_EDGE('',*,*,#395,.T.);
#510=ORIENTED_EDGE('',*,*,#402,.F.);
#511=ORIENTED_EDGE('',*,*,#403,.F.);
#512=ORIENTED_EDGE('',*,*,#399,.F.);
#513=ORIENTED_EDGE('',*,*,#394,.T.);
#514=ORIENTED_EDGE('',*,*,#404,.T.);
#515=ORIENTED_EDGE('',*,*,#405,.F.);
#516=ORIENTED_EDGE('',*,*,#402,.T.);
#517=ORIENTED_EDGE('',*,*,#403,.T.);
#518=ORIENTED_EDGE('',*,*,#405,.T.);
#519=ORIENTED_EDGE('',*,*,#406,.F.);
#520=ORIENTED_EDGE('',*,*,#400,.T.);
#521=ORIENTED_EDGE('',*,*,#385,.T.);
#522=ORIENTED_EDGE('',*,*,#388,.T.);
#523=ORIENTED_EDGE('',*,*,#407,.T.);
#524=ORIENTED_EDGE('',*,*,#408,.T.);
#525=ORIENTED_EDGE('',*,*,#409,.F.);
#526=ORIENTED_EDGE('',*,*,#410,.F.);
#527=ORIENTED_EDGE('',*,*,#411,.T.);
#528=ORIENTED_EDGE('',*,*,#381,.T.);
#529=ORIENTED_EDGE('',*,*,#384,.T.);
#530=ORIENTED_EDGE('',*,*,#412,.F.);
#531=ORIENTED_EDGE('',*,*,#413,.F.);
#532=ORIENTED_EDGE('',*,*,#414,.F.);
#533=ORIENTED_EDGE('',*,*,#415,.F.);
#534=ORIENTED_EDGE('',*,*,#416,.F.);
#535=ORIENTED_EDGE('',*,*,#417,.T.);
#536=ORIENTED_EDGE('',*,*,#409,.T.);
#537=ORIENTED_EDGE('',*,*,#418,.F.);
#538=ORIENTED_EDGE('',*,*,#397,.T.);
#539=ORIENTED_EDGE('',*,*,#401,.T.);
#540=ORIENTED_EDGE('',*,*,#406,.T.);
#541=ORIENTED_EDGE('',*,*,#404,.F.);
#542=ORIENTED_EDGE('',*,*,#393,.T.);
#543=ORIENTED_EDGE('',*,*,#419,.T.);
#544=ORIENTED_EDGE('',*,*,#410,.T.);
#545=ORIENTED_EDGE('',*,*,#417,.F.);
#546=ORIENTED_EDGE('',*,*,#420,.F.);
#547=ORIENTED_EDGE('',*,*,#392,.T.);
#548=ORIENTED_EDGE('',*,*,#421,.T.);
#549=ORIENTED_EDGE('',*,*,#411,.F.);
#550=ORIENTED_EDGE('',*,*,#419,.F.);
#551=ORIENTED_EDGE('',*,*,#391,.T.);
#552=ORIENTED_EDGE('',*,*,#422,.F.);
#553=ORIENTED_EDGE('',*,*,#407,.F.);
#554=ORIENTED_EDGE('',*,*,#421,.F.);
#555=ORIENTED_EDGE('',*,*,#398,.T.);
#556=ORIENTED_EDGE('',*,*,#418,.T.);
#557=ORIENTED_EDGE('',*,*,#408,.F.);
#558=ORIENTED_EDGE('',*,*,#422,.T.);
#559=ORIENTED_EDGE('',*,*,#412,.T.);
#560=ORIENTED_EDGE('',*,*,#420,.T.);
#561=ORIENTED_EDGE('',*,*,#416,.T.);
#562=ORIENTED_EDGE('',*,*,#415,.T.);
#563=ORIENTED_EDGE('',*,*,#414,.T.);
#564=ORIENTED_EDGE('',*,*,#423,.F.);
#565=ORIENTED_EDGE('',*,*,#424,.F.);
#566=ORIENTED_EDGE('',*,*,#423,.T.);
#567=ORIENTED_EDGE('',*,*,#413,.T.);
#568=ORIENTED_EDGE('',*,*,#424,.T.);
#569=ORIENTED_EDGE('',*,*,#425,.T.);
#570=ORIENTED_EDGE('',*,*,#425,.F.);
#571=ORIENTED_EDGE('',*,*,#426,.F.);
#572=ORIENTED_EDGE('',*,*,#427,.F.);
#573=ORIENTED_EDGE('',*,*,#428,.F.);
#574=ORIENTED_EDGE('',*,*,#429,.F.);
#575=ORIENTED_EDGE('',*,*,#430,.F.);
#576=ORIENTED_EDGE('',*,*,#431,.F.);
#577=ORIENTED_EDGE('',*,*,#432,.F.);
#578=ORIENTED_EDGE('',*,*,#433,.F.);
#579=ORIENTED_EDGE('',*,*,#434,.F.);
#580=ORIENTED_EDGE('',*,*,#435,.F.);
#581=ORIENTED_EDGE('',*,*,#436,.F.);
#582=ORIENTED_EDGE('',*,*,#437,.F.);
#583=ORIENTED_EDGE('',*,*,#431,.T.);
#584=ORIENTED_EDGE('',*,*,#438,.T.);
#585=ORIENTED_EDGE('',*,*,#439,.F.);
#586=ORIENTED_EDGE('',*,*,#440,.F.);
#587=ORIENTED_EDGE('',*,*,#430,.T.);
#588=ORIENTED_EDGE('',*,*,#441,.F.);
#589=ORIENTED_EDGE('',*,*,#442,.F.);
#590=ORIENTED_EDGE('',*,*,#438,.F.);
#591=ORIENTED_EDGE('',*,*,#429,.T.);
#592=ORIENTED_EDGE('',*,*,#443,.T.);
#593=ORIENTED_EDGE('',*,*,#444,.F.);
#594=ORIENTED_EDGE('',*,*,#441,.T.);
#595=ORIENTED_EDGE('',*,*,#445,.T.);
#596=ORIENTED_EDGE('',*,*,#446,.T.);
#597=ORIENTED_EDGE('',*,*,#447,.F.);
#598=ORIENTED_EDGE('',*,*,#448,.F.);
#599=ORIENTED_EDGE('',*,*,#449,.T.);
#600=ORIENTED_EDGE('',*,*,#450,.T.);
#601=ORIENTED_EDGE('',*,*,#451,.T.);
#602=ORIENTED_EDGE('',*,*,#442,.T.);
#603=ORIENTED_EDGE('',*,*,#444,.T.);
#604=ORIENTED_EDGE('',*,*,#452,.F.);
#605=ORIENTED_EDGE('',*,*,#439,.T.);
#606=ORIENTED_EDGE('',*,*,#453,.T.);
#607=ORIENTED_EDGE('',*,*,#454,.T.);
#608=ORIENTED_EDGE('',*,*,#434,.T.);
#609=ORIENTED_EDGE('',*,*,#455,.T.);
#610=ORIENTED_EDGE('',*,*,#453,.F.);
#611=ORIENTED_EDGE('',*,*,#455,.F.);
#612=ORIENTED_EDGE('',*,*,#435,.T.);
#613=ORIENTED_EDGE('',*,*,#456,.T.);
#614=ORIENTED_EDGE('',*,*,#454,.F.);
#615=ORIENTED_EDGE('',*,*,#456,.F.);
#616=ORIENTED_EDGE('',*,*,#450,.F.);
#617=ORIENTED_EDGE('',*,*,#457,.T.);
#618=ORIENTED_EDGE('',*,*,#436,.T.);
#619=ORIENTED_EDGE('',*,*,#457,.F.);
#620=ORIENTED_EDGE('',*,*,#451,.F.);
#621=ORIENTED_EDGE('',*,*,#458,.T.);
#622=ORIENTED_EDGE('',*,*,#437,.T.);
#623=ORIENTED_EDGE('',*,*,#458,.F.);
#624=ORIENTED_EDGE('',*,*,#459,.F.);
#625=ORIENTED_EDGE('',*,*,#460,.T.);
#626=ORIENTED_EDGE('',*,*,#461,.F.);
#627=ORIENTED_EDGE('',*,*,#460,.F.);
#628=ORIENTED_EDGE('',*,*,#462,.F.);
#629=ORIENTED_EDGE('',*,*,#463,.T.);
#630=ORIENTED_EDGE('',*,*,#464,.F.);
#631=ORIENTED_EDGE('',*,*,#463,.F.);
#632=ORIENTED_EDGE('',*,*,#465,.F.);
#633=ORIENTED_EDGE('',*,*,#466,.T.);
#634=ORIENTED_EDGE('',*,*,#467,.F.);
#635=ORIENTED_EDGE('',*,*,#466,.F.);
#636=ORIENTED_EDGE('',*,*,#468,.F.);
#637=ORIENTED_EDGE('',*,*,#469,.T.);
#638=ORIENTED_EDGE('',*,*,#470,.F.);
#639=ORIENTED_EDGE('',*,*,#469,.F.);
#640=ORIENTED_EDGE('',*,*,#459,.T.);
#641=ORIENTED_EDGE('',*,*,#468,.T.);
#642=ORIENTED_EDGE('',*,*,#462,.T.);
#643=ORIENTED_EDGE('',*,*,#465,.T.);
#644=ORIENTED_EDGE('',*,*,#471,.F.);
#645=ORIENTED_EDGE('',*,*,#472,.T.);
#646=ORIENTED_EDGE('',*,*,#447,.T.);
#647=ORIENTED_EDGE('',*,*,#473,.F.);
#648=ORIENTED_EDGE('',*,*,#432,.T.);
#649=ORIENTED_EDGE('',*,*,#440,.T.);
#650=ORIENTED_EDGE('',*,*,#452,.T.);
#651=ORIENTED_EDGE('',*,*,#443,.F.);
#652=ORIENTED_EDGE('',*,*,#428,.T.);
#653=ORIENTED_EDGE('',*,*,#474,.T.);
#654=ORIENTED_EDGE('',*,*,#448,.T.);
#655=ORIENTED_EDGE('',*,*,#472,.F.);
#656=ORIENTED_EDGE('',*,*,#427,.T.);
#657=ORIENTED_EDGE('',*,*,#475,.T.);
#658=ORIENTED_EDGE('',*,*,#449,.F.);
#659=ORIENTED_EDGE('',*,*,#474,.F.);
#660=ORIENTED_EDGE('',*,*,#426,.T.);
#661=ORIENTED_EDGE('',*,*,#476,.F.);
#662=ORIENTED_EDGE('',*,*,#445,.F.);
#663=ORIENTED_EDGE('',*,*,#475,.F.);
#664=ORIENTED_EDGE('',*,*,#433,.T.);
#665=ORIENTED_EDGE('',*,*,#473,.T.);
#666=ORIENTED_EDGE('',*,*,#446,.F.);
#667=ORIENTED_EDGE('',*,*,#476,.T.);
#668=ORIENTED_EDGE('',*,*,#471,.T.);
#669=ORIENTED_EDGE('',*,*,#461,.T.);
#670=ORIENTED_EDGE('',*,*,#464,.T.);
#671=ORIENTED_EDGE('',*,*,#467,.T.);
#672=ORIENTED_EDGE('',*,*,#470,.T.);
#673=CYLINDRICAL_SURFACE('',#741,0.165);
#674=CYLINDRICAL_SURFACE('',#744,0.165);
#675=CYLINDRICAL_SURFACE('',#747,0.165);
#676=CYLINDRICAL_SURFACE('',#750,0.165);
#677=CYLINDRICAL_SURFACE('',#764,1.25);
#678=CYLINDRICAL_SURFACE('',#788,0.165);
#679=CYLINDRICAL_SURFACE('',#789,0.165);
#680=CYLINDRICAL_SURFACE('',#790,0.165);
#681=CYLINDRICAL_SURFACE('',#791,0.165);
#682=CYLINDRICAL_SURFACE('',#792,0.154);
#683=CYLINDRICAL_SURFACE('',#795,0.154);
#684=CYLINDRICAL_SURFACE('',#798,0.154);
#685=CYLINDRICAL_SURFACE('',#801,0.154);
#686=CYLINDRICAL_SURFACE('',#808,1.25);
#687=ADVANCED_FACE('',(#70),#673,.F.);
#688=ADVANCED_FACE('',(#71),#674,.F.);
#689=ADVANCED_FACE('',(#72),#675,.F.);
#690=ADVANCED_FACE('',(#73),#676,.F.);
#691=ADVANCED_FACE('',(#74,#27,#28,#29,#30),#47,.F.);
#692=ADVANCED_FACE('',(#75),#48,.T.);
#693=ADVANCED_FACE('',(#76),#49,.F.);
#694=ADVANCED_FACE('',(#77),#50,.T.);
#695=ADVANCED_FACE('',(#78,#31,#32),#51,.T.);
#696=ADVANCED_FACE('',(#79,#33,#34),#52,.T.);
#697=ADVANCED_FACE('',(#80),#677,.T.);
#698=ADVANCED_FACE('',(#81),#53,.T.);
#699=ADVANCED_FACE('',(#82),#54,.F.);
#700=ADVANCED_FACE('',(#83),#55,.T.);
#701=ADVANCED_FACE('',(#84),#17,.T.);
#702=ADVANCED_FACE('',(#85),#18,.T.);
#703=ADVANCED_FACE('',(#86,#35,#36,#37,#38),#56,.T.);
#704=ADVANCED_FACE('',(#87),#57,.T.);
#705=ADVANCED_FACE('',(#88),#58,.F.);
#706=ADVANCED_FACE('',(#89),#59,.T.);
#707=ADVANCED_FACE('',(#90,#39,#40),#60,.F.);
#708=ADVANCED_FACE('',(#91,#41,#42),#61,.F.);
#709=ADVANCED_FACE('',(#92),#678,.F.);
#710=ADVANCED_FACE('',(#93),#679,.F.);
#711=ADVANCED_FACE('',(#94),#680,.F.);
#712=ADVANCED_FACE('',(#95),#681,.F.);
#713=ADVANCED_FACE('',(#96),#682,.F.);
#714=ADVANCED_FACE('',(#97),#683,.F.);
#715=ADVANCED_FACE('',(#98),#684,.F.);
#716=ADVANCED_FACE('',(#99),#685,.F.);
#717=ADVANCED_FACE('',(#100),#62,.F.);
#718=ADVANCED_FACE('',(#101),#63,.F.);
#719=ADVANCED_FACE('',(#102),#64,.F.);
#720=ADVANCED_FACE('',(#103),#65,.F.);
#721=ADVANCED_FACE('',(#104),#686,.T.);
#722=ADVANCED_FACE('',(#105),#66,.T.);
#723=ADVANCED_FACE('',(#106),#67,.F.);
#724=ADVANCED_FACE('',(#107),#68,.T.);
#725=ADVANCED_FACE('',(#108,#43,#44,#45,#46),#69,.T.);
#726=CLOSED_SHELL('',(#687,#688,#689,#690,#691,#692,#693,#694,#695,#696,
#697,#698,#699,#700,#701,#702));
#727=CLOSED_SHELL('',(#703,#704,#705,#706,#707,#708,#709,#710,#711,#712,
#713,#714,#715,#716,#717,#718,#719,#720,#721,#722,#723,#724,#725));
#728=DERIVED_UNIT_ELEMENT(#730,1.);
#729=DERIVED_UNIT_ELEMENT(#1552,-3.);
#730=(
MASS_UNIT()
NAMED_UNIT(*)
SI_UNIT(.KILO.,.GRAM.)
);
#731=DERIVED_UNIT((#728,#729));
#732=MEASURE_REPRESENTATION_ITEM('density measure',
POSITIVE_RATIO_MEASURE(7850.),#731);
#733=PROPERTY_DEFINITION_REPRESENTATION(#738,#735);
#734=PROPERTY_DEFINITION_REPRESENTATION(#739,#736);
#735=REPRESENTATION('material name',(#737),#1549);
#736=REPRESENTATION('density',(#732),#1549);
#737=DESCRIPTIVE_REPRESENTATION_ITEM('Steel','Steel');
#738=PROPERTY_DEFINITION('material property','material name',#1559);
#739=PROPERTY_DEFINITION('material property','density of part',#1559);
#740=AXIS2_PLACEMENT_3D('',#1016,#814,#815);
#741=AXIS2_PLACEMENT_3D('',#1017,#816,#817);
#742=AXIS2_PLACEMENT_3D('',#1019,#818,#819);
#743=AXIS2_PLACEMENT_3D('',#1022,#821,#822);
#744=AXIS2_PLACEMENT_3D('',#1023,#823,#824);
#745=AXIS2_PLACEMENT_3D('',#1025,#825,#826);
#746=AXIS2_PLACEMENT_3D('',#1028,#828,#829);
#747=AXIS2_PLACEMENT_3D('',#1029,#830,#831);
#748=AXIS2_PLACEMENT_3D('',#1031,#832,#833);
#749=AXIS2_PLACEMENT_3D('',#1034,#835,#836);
#750=AXIS2_PLACEMENT_3D('',#1035,#837,#838);
#751=AXIS2_PLACEMENT_3D('',#1037,#839,#840);
#752=AXIS2_PLACEMENT_3D('',#1040,#842,#843);
#753=AXIS2_PLACEMENT_3D('',#1041,#844,#845);
#754=AXIS2_PLACEMENT_3D('',#1048,#848,#849);
#755=AXIS2_PLACEMENT_3D('',#1056,#853,#854);
#756=AXIS2_PLACEMENT_3D('',#1058,#856,#857);
#757=AXIS2_PLACEMENT_3D('',#1064,#861,#862);
#758=AXIS2_PLACEMENT_3D('',#1068,#865,#866);
#759=AXIS2_PLACEMENT_3D('',#1072,#869,#870);
#760=AXIS2_PLACEMENT_3D('',#1073,#871,#872);
#761=AXIS2_PLACEMENT_3D('',#1074,#873,#874);
#762=AXIS2_PLACEMENT_3D('',#1081,#877,#878);
#763=AXIS2_PLACEMENT_3D('',#1083,#879,#880);
#764=AXIS2_PLACEMENT_3D('',#1085,#882,#883);
#765=AXIS2_PLACEMENT_3D('',#1155,#887,#888);
#766=AXIS2_PLACEMENT_3D('',#1157,#890,#891);
#767=AXIS2_PLACEMENT_3D('',#1159,#893,#894);
#768=AXIS2_PLACEMENT_3D('',#1299,#895,#896);
#769=AXIS2_PLACEMENT_3D('',#1439,#897,#898);
#770=AXIS2_PLACEMENT_3D('',#1446,#901,#902);
#771=AXIS2_PLACEMENT_3D('',#1454,#906,#907);
#772=AXIS2_PLACEMENT_3D('',#1457,#909,#910);
#773=AXIS2_PLACEMENT_3D('',#1459,#911,#912);
#774=AXIS2_PLACEMENT_3D('',#1461,#913,#914);
#775=AXIS2_PLACEMENT_3D('',#1463,#915,#916);
#776=AXIS2_PLACEMENT_3D('',#1464,#917,#918);
#777=AXIS2_PLACEMENT_3D('',#1470,#922,#923);
#778=AXIS2_PLACEMENT_3D('',#1474,#926,#927);
#779=AXIS2_PLACEMENT_3D('',#1478,#930,#931);
#780=AXIS2_PLACEMENT_3D('',#1485,#934,#935);
#781=AXIS2_PLACEMENT_3D('',#1487,#936,#937);
#782=AXIS2_PLACEMENT_3D('',#1490,#939,#940);
#783=AXIS2_PLACEMENT_3D('',#1492,#941,#942);
#784=AXIS2_PLACEMENT_3D('',#1493,#943,#944);
#785=AXIS2_PLACEMENT_3D('',#1494,#945,#946);
#786=AXIS2_PLACEMENT_3D('',#1496,#947,#948);
#787=AXIS2_PLACEMENT_3D('',#1498,#949,#950);
#788=AXIS2_PLACEMENT_3D('',#1499,#951,#952);
#789=AXIS2_PLACEMENT_3D('',#1501,#954,#955);
#790=AXIS2_PLACEMENT_3D('',#1503,#957,#958);
#791=AXIS2_PLACEMENT_3D('',#1505,#960,#961);
#792=AXIS2_PLACEMENT_3D('',#1507,#963,#964);
#793=AXIS2_PLACEMENT_3D('',#1509,#965,#966);
#794=AXIS2_PLACEMENT_3D('',#1512,#968,#969);
#795=AXIS2_PLACEMENT_3D('',#1513,#970,#971);
#796=AXIS2_PLACEMENT_3D('',#1515,#972,#973);
#797=AXIS2_PLACEMENT_3D('',#1518,#975,#976);
#798=AXIS2_PLACEMENT_3D('',#1519,#977,#978);
#799=AXIS2_PLACEMENT_3D('',#1521,#979,#980);
#800=AXIS2_PLACEMENT_3D('',#1524,#982,#983);
#801=AXIS2_PLACEMENT_3D('',#1525,#984,#985);
#802=AXIS2_PLACEMENT_3D('',#1527,#986,#987);
#803=AXIS2_PLACEMENT_3D('',#1530,#989,#990);
#804=AXIS2_PLACEMENT_3D('',#1531,#991,#992);
#805=AXIS2_PLACEMENT_3D('',#1532,#993,#994);
#806=AXIS2_PLACEMENT_3D('',#1533,#995,#996);
#807=AXIS2_PLACEMENT_3D('',#1534,#997,#998);
#808=AXIS2_PLACEMENT_3D('',#1535,#999,#1000);
#809=AXIS2_PLACEMENT_3D('',#1537,#1001,#1002);
#810=AXIS2_PLACEMENT_3D('',#1541,#1006,#1007);
#811=AXIS2_PLACEMENT_3D('',#1543,#1009,#1010);
#812=AXIS2_PLACEMENT_3D('',#1545,#1012,#1013);
#813=AXIS2_PLACEMENT_3D('',#1546,#1014,#1015);
#814=DIRECTION('axis',(0.,0.,1.));
#815=DIRECTION('refdir',(1.,0.,0.));
#816=DIRECTION('center_axis',(0.,0.,1.));
#817=DIRECTION('ref_axis',(1.,0.,0.));
#818=DIRECTION('center_axis',(0.,0.,1.));
#819=DIRECTION('ref_axis',(1.,0.,0.));
#820=DIRECTION('',(0.,0.,1.));
#821=DIRECTION('center_axis',(0.,0.,-1.));
#822=DIRECTION('ref_axis',(1.,0.,0.));
#823=DIRECTION('center_axis',(0.,0.,1.));
#824=DIRECTION('ref_axis',(1.,0.,0.));
#825=DIRECTION('center_axis',(0.,0.,1.));
#826=DIRECTION('ref_axis',(1.,0.,0.));
#827=DIRECTION('',(0.,0.,1.));
#828=DIRECTION('center_axis',(0.,0.,-1.));
#829=DIRECTION('ref_axis',(1.,0.,0.));
#830=DIRECTION('center_axis',(0.,0.,-1.));
#831=DIRECTION('ref_axis',(-1.,0.,0.));
#832=DIRECTION('center_axis',(0.,0.,-1.));
#833=DIRECTION('ref_axis',(-1.,0.,0.));
#834=DIRECTION('',(0.,0.,-1.));
#835=DIRECTION('center_axis',(0.,0.,1.));
#836=DIRECTION('ref_axis',(-1.,0.,0.));
#837=DIRECTION('center_axis',(0.,0.,-1.));
#838=DIRECTION('ref_axis',(-1.,0.,0.));
#839=DIRECTION('center_axis',(0.,0.,-1.));
#840=DIRECTION('ref_axis',(-1.,0.,0.));
#841=DIRECTION('',(0.,0.,-1.));
#842=DIRECTION('center_axis',(0.,0.,1.));
#843=DIRECTION('ref_axis',(-1.,0.,0.));
#844=DIRECTION('center_axis',(0.,0.,1.));
#845=DIRECTION('ref_axis',(1.,0.,0.));
#846=DIRECTION('',(0.,1.,0.));
#847=DIRECTION('',(1.,0.,0.));
#848=DIRECTION('center_axis',(0.,0.,1.));
#849=DIRECTION('ref_axis',(-1.,0.,0.));
#850=DIRECTION('',(1.,0.,0.));
#851=DIRECTION('',(0.,-1.,0.));
#852=DIRECTION('',(-1.,0.,0.));
#853=DIRECTION('center_axis',(0.,0.,1.));
#854=DIRECTION('ref_axis',(-1.,0.,0.));
#855=DIRECTION('',(-1.,0.,0.));
#856=DIRECTION('center_axis',(0.,1.,0.));
#857=DIRECTION('ref_axis',(-1.,0.,0.));
#858=DIRECTION('',(0.,0.,1.));
#859=DIRECTION('',(-1.,0.,0.));
#860=DIRECTION('',(0.,0.,1.));
#861=DIRECTION('center_axis',(1.,0.,0.));
#862=DIRECTION('ref_axis',(0.,0.,-1.));
#863=DIRECTION('',(0.,0.,-1.));
#864=DIRECTION('',(0.,-1.,0.));
#865=DIRECTION('center_axis',(0.,-1.,0.));
#866=DIRECTION('ref_axis',(1.,0.,0.));
#867=DIRECTION('',(0.,0.,1.));
#868=DIRECTION('',(1.,0.,0.));
#869=DIRECTION('center_axis',(0.,0.,1.));
#870=DIRECTION('ref_axis',(1.,0.,0.));
#871=DIRECTION('center_axis',(0.,0.,1.));
#872=DIRECTION('ref_axis',(-1.,0.,0.));
#873=DIRECTION('center_axis',(0.,0.,1.));
#874=DIRECTION('ref_axis',(1.,0.,0.));
#875=DIRECTION('',(0.,1.,0.));
#876=DIRECTION('',(-1.,0.,0.));
#877=DIRECTION('center_axis',(0.,0.,1.));
#878=DIRECTION('ref_axis',(-1.,0.,0.));
#879=DIRECTION('center_axis',(0.,0.,1.));
#880=DIRECTION('ref_axis',(-1.,0.,0.));
#881=DIRECTION('',(1.,0.,0.));
#882=DIRECTION('center_axis',(0.,0.,1.));
#883=DIRECTION('ref_axis',(-1.,0.,0.));
#884=DIRECTION('',(0.,0.,-1.));
#885=DIRECTION('',(0.,0.,1.));
#886=DIRECTION('',(0.,0.,1.));
#887=DIRECTION('center_axis',(0.,-1.,0.));
#888=DIRECTION('ref_axis',(1.,0.,0.));
#889=DIRECTION('',(0.,0.,1.));
#890=DIRECTION('center_axis',(-1.,0.,0.));
#891=DIRECTION('ref_axis',(0.,0.,1.));
#892=DIRECTION('',(0.,0.,-1.));
#893=DIRECTION('center_axis',(0.,1.,0.));
#894=DIRECTION('ref_axis',(-1.,0.,0.));
#895=DIRECTION('center_axis',(0.,0.5,0.866025403784438));
#896=DIRECTION('ref_axis',(-1.,0.,0.));
#897=DIRECTION('center_axis',(0.,0.,-1.));
#898=DIRECTION('ref_axis',(1.,0.,0.));
#899=DIRECTION('',(0.,-1.,0.));
#900=DIRECTION('',(-1.,0.,0.));
#901=DIRECTION('center_axis',(0.,0.,1.));
#902=DIRECTION('ref_axis',(1.,0.,0.));
#903=DIRECTION('',(-1.,0.,0.));
#904=DIRECTION('',(0.,1.,0.));
#905=DIRECTION('',(1.,0.,0.));
#906=DIRECTION('center_axis',(0.,0.,1.));
#907=DIRECTION('ref_axis',(1.,0.,0.));
#908=DIRECTION('',(1.,0.,0.));
#909=DIRECTION('center_axis',(0.,0.,-1.));
#910=DIRECTION('ref_axis',(1.,0.,0.));
#911=DIRECTION('center_axis',(0.,0.,-1.));
#912=DIRECTION('ref_axis',(1.,0.,0.));
#913=DIRECTION('center_axis',(0.,0.,-1.));
#914=DIRECTION('ref_axis',(-1.,0.,0.));
#915=DIRECTION('center_axis',(0.,0.,-1.));
#916=DIRECTION('ref_axis',(-1.,0.,0.));
#917=DIRECTION('center_axis',(0.,-1.,0.));
#918=DIRECTION('ref_axis',(1.,0.,0.));
#919=DIRECTION('',(0.,0.,1.));
#920=DIRECTION('',(1.,0.,0.));
#921=DIRECTION('',(0.,0.,1.));
#922=DIRECTION('center_axis',(-1.,0.,0.));
#923=DIRECTION('ref_axis',(0.,0.,1.));
#924=DIRECTION('',(0.,0.,-1.));
#925=DIRECTION('',(0.,1.,0.));
#926=DIRECTION('center_axis',(0.,1.,0.));
#927=DIRECTION('ref_axis',(-1.,0.,0.));
#928=DIRECTION('',(0.,0.,1.));
#929=DIRECTION('',(-1.,0.,0.));
#930=DIRECTION('center_axis',(0.,0.,-1.));
#931=DIRECTION('ref_axis',(1.,0.,0.));
#932=DIRECTION('',(0.,-1.,0.));
#933=DIRECTION('',(1.,0.,0.));
#934=DIRECTION('center_axis',(0.,0.,1.));
#935=DIRECTION('ref_axis',(1.,0.,0.));
#936=DIRECTION('center_axis',(0.,0.,1.));
#937=DIRECTION('ref_axis',(1.,0.,0.));
#938=DIRECTION('',(-1.,0.,0.));
#939=DIRECTION('center_axis',(0.,0.,-1.));
#940=DIRECTION('ref_axis',(-1.,0.,0.));
#941=DIRECTION('center_axis',(0.,0.,-1.));
#942=DIRECTION('ref_axis',(-1.,0.,0.));
#943=DIRECTION('center_axis',(0.,0.,-1.));
#944=DIRECTION('ref_axis',(1.,0.,0.));
#945=DIRECTION('center_axis',(0.,0.,1.));
#946=DIRECTION('ref_axis',(1.,0.,0.));
#947=DIRECTION('center_axis',(0.,0.,-1.));
#948=DIRECTION('ref_axis',(1.,0.,0.));
#949=DIRECTION('center_axis',(0.,0.,-1.));
#950=DIRECTION('ref_axis',(1.,0.,0.));
#951=DIRECTION('center_axis',(0.,0.,1.));
#952=DIRECTION('ref_axis',(1.,0.,0.));
#953=DIRECTION('',(0.,0.,1.));
#954=DIRECTION('center_axis',(0.,0.,1.));
#955=DIRECTION('ref_axis',(1.,0.,0.));
#956=DIRECTION('',(0.,0.,1.));
#957=DIRECTION('center_axis',(0.,0.,-1.));
#958=DIRECTION('ref_axis',(-1.,0.,0.));
#959=DIRECTION('',(0.,0.,-1.));
#960=DIRECTION('center_axis',(0.,0.,-1.));
#961=DIRECTION('ref_axis',(-1.,0.,0.));
#962=DIRECTION('',(0.,0.,-1.));
#963=DIRECTION('center_axis',(0.,0.,-1.));
#964=DIRECTION('ref_axis',(-1.,0.,0.));
#965=DIRECTION('center_axis',(0.,0.,1.));
#966=DIRECTION('ref_axis',(-1.,0.,0.));
#967=DIRECTION('',(0.,0.,1.));
#968=DIRECTION('center_axis',(0.,0.,-1.));
#969=DIRECTION('ref_axis',(-1.,0.,0.));
#970=DIRECTION('center_axis',(0.,0.,-1.));
#971=DIRECTION('ref_axis',(-1.,0.,0.));
#972=DIRECTION('center_axis',(0.,0.,1.));
#973=DIRECTION('ref_axis',(-1.,0.,0.));
#974=DIRECTION('',(0.,0.,1.));
#975=DIRECTION('center_axis',(0.,0.,-1.));
#976=DIRECTION('ref_axis',(-1.,0.,0.));
#977=DIRECTION('center_axis',(0.,0.,-1.));
#978=DIRECTION('ref_axis',(-1.,0.,0.));
#979=DIRECTION('center_axis',(0.,0.,1.));
#980=DIRECTION('ref_axis',(-1.,0.,0.));
#981=DIRECTION('',(0.,0.,1.));
#982=DIRECTION('center_axis',(0.,0.,-1.));
#983=DIRECTION('ref_axis',(-1.,0.,0.));
#984=DIRECTION('center_axis',(0.,0.,-1.));
#985=DIRECTION('ref_axis',(-1.,0.,0.));
#986=DIRECTION('center_axis',(0.,0.,1.));
#987=DIRECTION('ref_axis',(-1.,0.,0.));
#988=DIRECTION('',(0.,0.,1.));
#989=DIRECTION('center_axis',(0.,0.,-1.));
#990=DIRECTION('ref_axis',(-1.,0.,0.));
#991=DIRECTION('center_axis',(0.,0.,-1.));
#992=DIRECTION('ref_axis',(1.,0.,0.));
#993=DIRECTION('center_axis',(0.,0.,-1.));
#994=DIRECTION('ref_axis',(1.,0.,0.));
#995=DIRECTION('center_axis',(0.,0.,-1.));
#996=DIRECTION('ref_axis',(1.,0.,0.));
#997=DIRECTION('center_axis',(0.,0.,-1.));
#998=DIRECTION('ref_axis',(1.,0.,0.));
#999=DIRECTION('center_axis',(0.,0.,1.));
#1000=DIRECTION('ref_axis',(1.,0.,0.));
#1001=DIRECTION('center_axis',(0.,0.,1.));
#1002=DIRECTION('ref_axis',(1.,0.,0.));
#1003=DIRECTION('',(0.,0.,-1.));
#1004=DIRECTION('',(0.,0.,1.));
#1005=DIRECTION('',(0.,0.,1.));
#1006=DIRECTION('center_axis',(0.,1.,0.));
#1007=DIRECTION('ref_axis',(-1.,0.,0.));
#1008=DIRECTION('',(0.,0.,1.));
#1009=DIRECTION('center_axis',(1.,0.,0.));
#1010=DIRECTION('ref_axis',(0.,0.,-1.));
#1011=DIRECTION('',(0.,0.,-1.));
#1012=DIRECTION('center_axis',(0.,-1.,0.));
#1013=DIRECTION('ref_axis',(1.,0.,0.));
#1014=DIRECTION('center_axis',(0.,0.,1.));
#1015=DIRECTION('ref_axis',(1.,0.,0.));
#1016=CARTESIAN_POINT('',(0.,0.,0.));
#1017=CARTESIAN_POINT('Origin',(0.5,1.5,3.5));
#1018=CARTESIAN_POINT('',(0.335,1.5,3.5));
#1019=CARTESIAN_POINT('Origin',(0.5,1.5,3.5));
#1020=CARTESIAN_POINT('',(0.335,1.5,3.92));
#1021=CARTESIAN_POINT('',(0.335,1.5,3.5));
#1022=CARTESIAN_POINT('Origin',(0.5,1.5,3.92));
#1023=CARTESIAN_POINT('Origin',(0.5,0.5,3.5));
#1024=CARTESIAN_POINT('',(0.335,0.5,3.5));
#1025=CARTESIAN_POINT('Origin',(0.5,0.5,3.5));
#1026=CARTESIAN_POINT('',(0.335,0.5,3.92));
#1027=CARTESIAN_POINT('',(0.335,0.5,3.5));
#1028=CARTESIAN_POINT('Origin',(0.5,0.5,3.92));
#1029=CARTESIAN_POINT('Origin',(-2.5,0.5,3.92));
#1030=CARTESIAN_POINT('',(-2.335,0.5,3.92));
#1031=CARTESIAN_POINT('Origin',(-2.5,0.5,3.92));
#1032=CARTESIAN_POINT('',(-2.335,0.5,3.5));
#1033=CARTESIAN_POINT('',(-2.335,0.5,3.92));
#1034=CARTESIAN_POINT('Origin',(-2.5,0.5,3.5));
#1035=CARTESIAN_POINT('Origin',(-2.5,1.5,3.92));
#1036=CARTESIAN_POINT('',(-2.335,1.5,3.92));
#1037=CARTESIAN_POINT('Origin',(-2.5,1.5,3.92));
#1038=CARTESIAN_POINT('',(-2.335,1.5,3.5));
#1039=CARTESIAN_POINT('',(-2.335,1.5,3.92));
#1040=CARTESIAN_POINT('Origin',(-2.5,1.5,3.5));
#1041=CARTESIAN_POINT('Origin',(-1.,1.,3.5));
#1042=CARTESIAN_POINT('',(1.05,0.,3.5));
#1043=CARTESIAN_POINT('',(1.05,2.,3.5));
#1044=CARTESIAN_POINT('',(1.05,0.5,3.5));
#1045=CARTESIAN_POINT('',(-0.25,0.,3.5));
#1046=CARTESIAN_POINT('',(-2.125,0.,3.5));
#1047=CARTESIAN_POINT('',(-1.75,0.,3.5));
#1048=CARTESIAN_POINT('Origin',(-1.,1.,3.5));
#1049=CARTESIAN_POINT('',(-3.05,0.,3.5));
#1050=CARTESIAN_POINT('',(-2.125,0.,3.5));
#1051=CARTESIAN_POINT('',(-3.05,2.,3.5));
#1052=CARTESIAN_POINT('',(-3.05,1.5,3.5));
#1053=CARTESIAN_POINT('',(-1.75,2.,3.5));
#1054=CARTESIAN_POINT('',(0.125,2.,3.5));
#1055=CARTESIAN_POINT('',(-0.25,2.,3.5));
#1056=CARTESIAN_POINT('Origin',(-1.,1.,3.5));
#1057=CARTESIAN_POINT('',(0.125,2.,3.5));
#1058=CARTESIAN_POINT('Origin',(1.25,2.,0.05));
#1059=CARTESIAN_POINT('',(-3.05,2.,3.92));
#1060=CARTESIAN_POINT('',(-3.05,2.,0.05));
#1061=CARTESIAN_POINT('',(-1.75,2.,3.92));
#1062=CARTESIAN_POINT('',(1.25,2.,3.92));
#1063=CARTESIAN_POINT('',(-1.75,2.,0.35));
#1064=CARTESIAN_POINT('Origin',(-3.05,2.,0.05));
#1065=CARTESIAN_POINT('',(-3.05,0.,3.92));
#1066=CARTESIAN_POINT('',(-3.05,0.,0.05));
#1067=CARTESIAN_POINT('',(-3.05,1.5,3.92));
#1068=CARTESIAN_POINT('Origin',(-3.25,0.,0.05));
#1069=CARTESIAN_POINT('',(-1.75,0.,3.92));
#1070=CARTESIAN_POINT('',(-1.75,0.,0.));
#1071=CARTESIAN_POINT('',(-3.25,0.,3.92));
#1072=CARTESIAN_POINT('Origin',(-1.,1.,3.92));
#1073=CARTESIAN_POINT('Origin',(-1.,1.,3.92));
#1074=CARTESIAN_POINT('Origin',(-1.,1.,3.92));
#1075=CARTESIAN_POINT('',(1.05,0.,3.92));
#1076=CARTESIAN_POINT('',(1.05,2.,3.92));
#1077=CARTESIAN_POINT('',(1.05,0.5,3.92));
#1078=CARTESIAN_POINT('',(-0.25,2.,3.92));
#1079=CARTESIAN_POINT('',(1.25,2.,3.92));
#1080=CARTESIAN_POINT('',(0.25,1.,3.92));
#1081=CARTESIAN_POINT('Origin',(-1.,1.,3.92));
#1082=CARTESIAN_POINT('',(-0.25,0.,3.92));
#1083=CARTESIAN_POINT('Origin',(-1.,1.,3.92));
#1084=CARTESIAN_POINT('',(-3.25,0.,3.92));
#1085=CARTESIAN_POINT('Origin',(-1.,1.,0.35));
#1086=CARTESIAN_POINT('',(-1.75,0.,10.7541392335164));
#1087=CARTESIAN_POINT('',(-0.25,-2.22044604925031E-16,10.741265867011));
#1088=CARTESIAN_POINT('Ctrl Pts',(-1.75,-5.55111512312578E-17,10.7541392335164));
#1089=CARTESIAN_POINT('Ctrl Pts',(-1.68299984498601,-0.0502501162604909,
10.7814279487014));
#1090=CARTESIAN_POINT('Ctrl Pts',(-1.61043673908218,-0.094151718580292,
10.8063963788738));
#1091=CARTESIAN_POINT('Ctrl Pts',(-1.45630304048097,-0.166836223200988,
10.8488307607895));
#1092=CARTESIAN_POINT('Ctrl Pts',(-1.37517927006769,-0.195515289424381,
10.8662223900806));
#1093=CARTESIAN_POINT('Ctrl Pts',(-1.17298226515873,-0.243892408562949,
10.895799882027));
#1094=CARTESIAN_POINT('Ctrl Pts',(-1.04023572216529,-0.257269358080081,
10.9051000516886));
#1095=CARTESIAN_POINT('Ctrl Pts',(-0.753586751067715,-0.234221119156752,
10.8875863271315));
#1096=CARTESIAN_POINT('Ctrl Pts',(-0.612951813818112,-0.196989622006685,
10.8594779242393));
#1097=CARTESIAN_POINT('Ctrl Pts',(-0.400446049356609,-0.100646528115511,
10.7983631500032));
#1098=CARTESIAN_POINT('Ctrl Pts',(-0.322077101532901,-0.0540578261496759,
10.7706793266333));
#1099=CARTESIAN_POINT('Ctrl Pts',(-0.25,3.05311331771918E-16,10.741265867011));
#1100=CARTESIAN_POINT('',(-2.23312861566276,0.795320208047662,10.4213038680331));
#1101=CARTESIAN_POINT('Ctrl Pts',(-2.23312861566276,0.795320208047663,10.4213038680331));
#1102=CARTESIAN_POINT('Ctrl Pts',(-2.22804475894084,0.764691638700749,10.4303058094688));
#1103=CARTESIAN_POINT('Ctrl Pts',(-2.22182749957812,0.734301871342557,10.4395871710055));
#1104=CARTESIAN_POINT('Ctrl Pts',(-2.17954611156175,0.560683981389521,10.4949172499258));
#1105=CARTESIAN_POINT('Ctrl Pts',(-2.11993396537769,0.426409972554481,10.5477759725309));
#1106=CARTESIAN_POINT('Ctrl Pts',(-1.96202373107281,0.189586971129674,10.654334731396));
#1107=CARTESIAN_POINT('Ctrl Pts',(-1.86423606571563,0.0856770492867256,
10.7076116477142));
#1108=CARTESIAN_POINT('Ctrl Pts',(-1.75,-2.77555756156289E-16,10.7541392335164));
#1109=CARTESIAN_POINT('',(-1.75,2.,10.1894162873135));
#1110=CARTESIAN_POINT('Ctrl Pts',(-1.75,2.,10.1894162873135));
#1111=CARTESIAN_POINT('Ctrl Pts',(-1.82690166383488,1.94232375212384,10.1972647358));
#1112=CARTESIAN_POINT('Ctrl Pts',(-1.8968519585578,1.87598928103503,10.206030738849));
#1113=CARTESIAN_POINT('Ctrl Pts',(-2.01179125323591,1.73870721789117,10.2245750425164));
#1114=CARTESIAN_POINT('Ctrl Pts',(-2.05858600881465,1.66989337824403,10.234044676949));
#1115=CARTESIAN_POINT('Ctrl Pts',(-2.17110752685066,1.46295709624933,10.265465262208));
#1116=CARTESIAN_POINT('Ctrl Pts',(-2.21818240292663,1.31814993814332,10.2914406187402));
#1117=CARTESIAN_POINT('Ctrl Pts',(-2.25558828302303,1.04386554845816,10.3531332782776));
#1118=CARTESIAN_POINT('Ctrl Pts',(-2.25345407879116,0.917774457053707,10.3853137450335));
#1119=CARTESIAN_POINT('Ctrl Pts',(-2.23312861566276,0.795320208047663,10.4213038680331));
#1120=CARTESIAN_POINT('',(-0.25,2.,10.1875076998297));
#1121=CARTESIAN_POINT('Ctrl Pts',(-0.25,2.,10.1875076998297));
#1122=CARTESIAN_POINT('Ctrl Pts',(-0.360551808937637,2.08291385670323,10.1760880764173));
#1123=CARTESIAN_POINT('Ctrl Pts',(-0.484256725115842,2.1470404867804,10.167550423209));
#1124=CARTESIAN_POINT('Ctrl Pts',(-0.701273982903159,2.21707555159581,10.1582307259615));
#1125=CARTESIAN_POINT('Ctrl Pts',(-0.789188950471448,2.235346425793,10.1558141775525));
#1126=CARTESIAN_POINT('Ctrl Pts',(-0.953351571473377,2.25140162553546,10.1536888367604));
#1127=CARTESIAN_POINT('Ctrl Pts',(-1.0289525902822,2.25194029670013,10.1535866083678));
#1128=CARTESIAN_POINT('Ctrl Pts',(-1.19270102911651,2.23825040710206,10.1556308150571));
#1129=CARTESIAN_POINT('Ctrl Pts',(-1.28017893289257,2.22142738130985,10.1581338705679));
#1130=CARTESIAN_POINT('Ctrl Pts',(-1.50393361399199,2.15309237392196,10.1680961979771));
#1131=CARTESIAN_POINT('Ctrl Pts',(-1.63416134185159,2.08687899361131,10.1775939977052));
#1132=CARTESIAN_POINT('Ctrl Pts',(-1.75,2.,10.1894162873135));
#1133=CARTESIAN_POINT('',(0.25,1.00000000000602,10.3657707118367));
#1134=CARTESIAN_POINT('Ctrl Pts',(0.25,1.00000000001204,10.3657707118367));
#1135=CARTESIAN_POINT('Ctrl Pts',(0.249999999999118,1.09155249997042,10.3429409799943));
#1136=CARTESIAN_POINT('Ctrl Pts',(0.239955515918258,1.18357417942349,10.3226373894402));
#1137=CARTESIAN_POINT('Ctrl Pts',(0.186597563139791,1.42060811816295,10.2753493462965));
#1138=CARTESIAN_POINT('Ctrl Pts',(0.12751128593804,1.56044681006673,10.2522645430941));
#1139=CARTESIAN_POINT('Ctrl Pts',(-0.0347152570754624,1.80712695296998,
10.214335342152));
#1140=CARTESIAN_POINT('Ctrl Pts',(-0.1342678845939,1.91320091344542,10.1994624311666));
#1141=CARTESIAN_POINT('Ctrl Pts',(-0.25,2.,10.1875076998297));
#1142=CARTESIAN_POINT('',(0.25,1.,0.35));
#1143=CARTESIAN_POINT('',(-0.25,2.,0.));
#1144=CARTESIAN_POINT('',(-0.25,0.,0.35));
#1145=CARTESIAN_POINT('Ctrl Pts',(-0.25,5.55111512312578E-17,10.741265867011));
#1146=CARTESIAN_POINT('Ctrl Pts',(-0.192665014328675,0.0430012392534936,
10.717868418305));
#1147=CARTESIAN_POINT('Ctrl Pts',(-0.139325901752479,0.0907104606138561,
10.6933625855069));
#1148=CARTESIAN_POINT('Ctrl Pts',(-0.0398735380553967,0.196195233081792,
10.6426878708438));
#1149=CARTESIAN_POINT('Ctrl Pts',(0.00587983586447156,0.254247793750614,
10.6165033456149));
#1150=CARTESIAN_POINT('Ctrl Pts',(0.139185753218023,0.458147221030187,10.53093189358));
#1151=CARTESIAN_POINT('Ctrl Pts',(0.202998729327755,0.618989978463491,10.4733617749073));
#1152=CARTESIAN_POINT('Ctrl Pts',(0.244006980899697,0.858866069997088,10.4025378638095));
#1153=CARTESIAN_POINT('Ctrl Pts',(0.250000000000681,0.92929344645758,10.383402252842));
#1154=CARTESIAN_POINT('Ctrl Pts',(0.25,1.00000000001204,10.3657707118367));
#1155=CARTESIAN_POINT('Origin',(-3.25,0.,0.05));
#1156=CARTESIAN_POINT('',(1.05,0.,0.05));
#1157=CARTESIAN_POINT('Origin',(1.05,0.,0.05));
#1158=CARTESIAN_POINT('',(1.05,2.,0.05));
#1159=CARTESIAN_POINT('Origin',(1.25,2.,0.05));
#1160=CARTESIAN_POINT('Ctrl Pts',(-2.4,1.1083379983552,10.9634665536022));
#1161=CARTESIAN_POINT('Ctrl Pts',(-2.39687477496267,0.986370520009191,10.7522126973519));
#1162=CARTESIAN_POINT('Ctrl Pts',(-2.34687477992973,0.886370515707597,10.5790076190785));
#1163=CARTESIAN_POINT('Ctrl Pts',(-2.21598245736854,0.780936875505451,10.3963912065447));
#1164=CARTESIAN_POINT('Ctrl Pts',(-2.17618494983726,0.756244491418456,10.3536227447247));
#1165=CARTESIAN_POINT('Ctrl Pts',(-2.13060749230733,0.734260833189426,10.3155459333222));
#1166=CARTESIAN_POINT('Ctrl Pts',(-2.4,1.26704544272569,10.8718367678725));
#1167=CARTESIAN_POINT('Ctrl Pts',(-2.39687477496267,1.13940984136645,10.6638554039696));
#1168=CARTESIAN_POINT('Ctrl Pts',(-2.34687701406971,1.0450179066755,10.4874125051969));
#1169=CARTESIAN_POINT('Ctrl Pts',(-2.21598922779193,0.916689096128454,10.3180146254249));
#1170=CARTESIAN_POINT('Ctrl Pts',(-2.17619013950925,0.885429277248402,10.2790378738506));
#1171=CARTESIAN_POINT('Ctrl Pts',(-2.13060749230733,0.856414341422481,10.2450205724614));
#1172=CARTESIAN_POINT('Ctrl Pts',(-2.32708603505745,1.58438046940623,10.6886233047952));
#1173=CARTESIAN_POINT('Ctrl Pts',(-2.32414691803994,1.45073842878948,10.4841097602145));
#1174=CARTESIAN_POINT('Ctrl Pts',(-2.2760043747034,1.35578520783114,10.3079909202194));
#1175=CARTESIAN_POINT('Ctrl Pts',(-2.15290723100578,1.19039402948131,10.1599910084751));
#1176=CARTESIAN_POINT('Ctrl Pts',(-2.11522385783291,1.14808484090279,10.1273936134706));
#1177=CARTESIAN_POINT('Ctrl Pts',(-2.07193328599787,1.10681346061444,10.100452573591));
#1178=CARTESIAN_POINT('Ctrl Pts',(-2.01583820388798,1.98808801539098,10.455542644447));
#1179=CARTESIAN_POINT('Ctrl Pts',(-2.01361082037712,1.85555657217134,10.2503878961602));
#1180=CARTESIAN_POINT('Ctrl Pts',(-1.976041228332,1.74134312349923,10.0853889538202));
#1181=CARTESIAN_POINT('Ctrl Pts',(-1.88275069075869,1.54202476697643,9.95697690752699));
#1182=CARTESIAN_POINT('Ctrl Pts',(-1.8539461581478,1.48904599705398,9.93053959818351));
#1183=CARTESIAN_POINT('Ctrl Pts',(-1.82072868405618,1.43526532655812,9.91082080037263));
#1184=CARTESIAN_POINT('Ctrl Pts',(-1.54968135909652,2.25763620473693,10.2999189247686));
#1185=CARTESIAN_POINT('Ctrl Pts',(-1.54847252798671,2.13046645117433,10.0916686035149));
#1186=CARTESIAN_POINT('Ctrl Pts',(-1.52825854935909,1.99441170217896,9.93927974179606));
#1187=CARTESIAN_POINT('Ctrl Pts',(-1.47763051532817,1.77834574739141,9.82053692586925));
#1188=CARTESIAN_POINT('Ctrl Pts',(-1.46203695635401,1.71998997868766,9.79720402821958));
#1189=CARTESIAN_POINT('Ctrl Pts',(-1.44407338587568,1.65958141631033,9.78131184557063));
#1190=CARTESIAN_POINT('Ctrl Pts',(-1.18325095903065,2.32078783299899,10.2634583151917));
#1191=CARTESIAN_POINT('Ctrl Pts',(-1.18284187372945,2.19611382469873,10.053767074739));
#1192=CARTESIAN_POINT('Ctrl Pts',(-1.17629779730867,2.05281145945157,9.90556262621412));
#1193=CARTESIAN_POINT('Ctrl Pts',(-1.15916399681784,1.83402262833989,9.788391863666));
#1194=CARTESIAN_POINT('Ctrl Pts',(-1.15395474044239,1.7748639320368,9.76552253648195));
#1195=CARTESIAN_POINT('Ctrl Pts',(-1.1479890625066,1.71340743713989,9.75023537795528));
#1196=CARTESIAN_POINT('Ctrl Pts',(-0.816741882288221,2.32078762926264,10.2634584328189));
#1197=CARTESIAN_POINT('Ctrl Pts',(-0.817150980705405,2.19611362096238,10.0537671923662));
#1198=CARTESIAN_POINT('Ctrl Pts',(-0.823696019370719,2.052811281123,9.90556272917216));
#1199=CARTESIAN_POINT('Ctrl Pts',(-0.840830205243058,1.83402245727804,9.78839196242861));
#1200=CARTESIAN_POINT('Ctrl Pts',(-0.84603950749684,1.77486376342363,9.76552263383082));
#1201=CARTESIAN_POINT('Ctrl Pts',(-0.85200504867316,1.71340726852672,9.75023547530414));
#1202=CARTESIAN_POINT('Ctrl Pts',(-0.450311972717526,2.25763593428545,10.2999190809138));
#1203=CARTESIAN_POINT('Ctrl Pts',(-0.451520816943318,2.1331231002582,10.0901347864512));
#1204=CARTESIAN_POINT('Ctrl Pts',(-0.471735364244417,1.99143016135585,9.94100113519288));
#1205=CARTESIAN_POINT('Ctrl Pts',(-0.522363091240843,1.77939240474969,9.81993263796169));
#1206=CARTESIAN_POINT('Ctrl Pts',(-0.537956925386922,1.72206467504028,9.79600620172191));
#1207=CARTESIAN_POINT('Ctrl Pts',(-0.555921131240233,1.66258866081482,9.77957561214644));
#1208=CARTESIAN_POINT('Ctrl Pts',(0.0158477877987026,1.98808663835391,10.4555434394797));
#1209=CARTESIAN_POINT('Ctrl Pts',(0.0136203911718634,1.86419018362414,10.2454032782638));
#1210=CARTESIAN_POINT('Ctrl Pts',(-0.023950856183178,1.7316526798682,10.0909837340592));
#1211=CARTESIAN_POINT('Ctrl Pts',(-0.117242658763199,1.5454259851997,9.95501321327021));
#1212=CARTESIAN_POINT('Ctrl Pts',(-0.146046990022283,1.49578834799506,9.92664690005271));
#1213=CARTESIAN_POINT('Ctrl Pts',(-0.179263419991993,1.44503845899279,9.90517827973065));
#1214=CARTESIAN_POINT('Ctrl Pts',(0.327095911899746,1.58438015231246,10.6886234878694));
#1215=CARTESIAN_POINT('Ctrl Pts',(0.324156781766253,1.46136578983708,10.4779740504529));
#1216=CARTESIAN_POINT('Ctrl Pts',(0.27601378996171,1.34385971388424,10.3148761073599));
#1217=CARTESIAN_POINT('Ctrl Pts',(0.152917895401826,1.19458130098481,10.1575734861454));
#1218=CARTESIAN_POINT('Ctrl Pts',(0.115233840319368,1.15638425919265,10.1226019420868));
#1219=CARTESIAN_POINT('Ctrl Pts',(0.0719414243812547,1.1188430715118,10.0935072745012));
#1220=CARTESIAN_POINT('Ctrl Pts',(0.400017049640406,1.26704152492041,10.8718390298184));
#1221=CARTESIAN_POINT('Ctrl Pts',(0.396891811487095,1.14471976263186,10.6607897194977));
#1222=CARTESIAN_POINT('Ctrl Pts',(0.346890478267151,1.03905186925751,10.4908569985062));
#1223=CARTESIAN_POINT('Ctrl Pts',(0.215999158744602,0.918779575518031,10.3168076865866));
#1224=CARTESIAN_POINT('Ctrl Pts',(0.176200879702629,0.88957587521315,10.2766438343994));
#1225=CARTESIAN_POINT('Ctrl Pts',(0.130621566932661,0.862426035690975,10.2415497191572));
#1226=CARTESIAN_POINT('Ctrl Pts',(0.400017049640406,0.949634471789987,11.055094077386));
#1227=CARTESIAN_POINT('Ctrl Pts',(0.396891811487095,0.828021277386524,10.843635675206));
#1228=CARTESIAN_POINT('Ctrl Pts',(0.346890478267152,0.733689162157683,10.6671582396508));
#1229=CARTESIAN_POINT('Ctrl Pts',(0.215999158744602,0.643094175492872,10.4759747265028));
#1230=CARTESIAN_POINT('Ctrl Pts',(0.176200879702629,0.622913107623762,10.43060165505));
#1231=CARTESIAN_POINT('Ctrl Pts',(0.130621566932661,0.606095630687877,10.3895421474872));
#1232=CARTESIAN_POINT('Ctrl Pts',(0.327095911899746,0.632295844397937,11.238309619335));
#1233=CARTESIAN_POINT('Ctrl Pts',(0.324156781766253,0.511375250181298,11.0264513442508));
#1234=CARTESIAN_POINT('Ctrl Pts',(0.27601378996171,0.428881317530951,10.8431391307971));
#1235=CARTESIAN_POINT('Ctrl Pts',(0.152917895401825,0.367292450026095,10.635208926944));
#1236=CARTESIAN_POINT('Ctrl Pts',(0.115233840319368,0.356104723644261,10.5846435473626));
#1237=CARTESIAN_POINT('Ctrl Pts',(0.0719414243812546,0.349678594867052,
10.5375845921432));
#1238=CARTESIAN_POINT('Ctrl Pts',(0.0158477877987028,0.228589358356486,
11.4713896677247));
#1239=CARTESIAN_POINT('Ctrl Pts',(0.0136203911718635,0.10855085639424,11.2590221164399));
#1240=CARTESIAN_POINT('Ctrl Pts',(-0.0239508561831779,0.0410883515469948,
11.0670315040978));
#1241=CARTESIAN_POINT('Ctrl Pts',(-0.117242658763199,0.0164477658112034,
10.8377691998192));
#1242=CARTESIAN_POINT('Ctrl Pts',(-0.146046990022282,0.0167006348418549,
10.7805985893968));
#1243=CARTESIAN_POINT('Ctrl Pts',(-0.179263419991993,0.023483207386063,
10.7259135869137));
#1244=CARTESIAN_POINT('Ctrl Pts',(-0.450311972717526,-0.0409599375750579,
11.6270140262906));
#1245=CARTESIAN_POINT('Ctrl Pts',(-0.451520816943318,-0.160382060239818,
11.4142906082525));
#1246=CARTESIAN_POINT('Ctrl Pts',(-0.471735364244417,-0.218689129940659,
11.2170141029641));
#1247=CARTESIAN_POINT('Ctrl Pts',(-0.522363091240843,-0.217518653738787,
10.9728497751278));
#1248=CARTESIAN_POINT('Ctrl Pts',(-0.537956925386922,-0.209575692203366,
10.9112392877276));
#1249=CARTESIAN_POINT('Ctrl Pts',(-0.555921131240233,-0.19406699443597,
10.8515162544979));
#1250=CARTESIAN_POINT('Ctrl Pts',(-0.81674188228822,-0.10411163255225,11.6634746743855));
#1251=CARTESIAN_POINT('Ctrl Pts',(-0.817150980705405,-0.223372580944,11.4506582023375));
#1252=CARTESIAN_POINT('Ctrl Pts',(-0.823696019370719,-0.280070249707807,
11.2524525089848));
#1253=CARTESIAN_POINT('Ctrl Pts',(-0.840830205243058,-0.272148706267134,
11.0043904506608));
#1254=CARTESIAN_POINT('Ctrl Pts',(-0.84603950749684,-0.262374780586714,
10.9417228556187));
#1255=CARTESIAN_POINT('Ctrl Pts',(-0.85200504867316,-0.244885602147866,
10.8808563913402));
#1256=CARTESIAN_POINT('Ctrl Pts',(-1.18325095903065,-0.104111836288599,
11.6634747920127));
#1257=CARTESIAN_POINT('Ctrl Pts',(-1.18284187372945,-0.223372784680349,
11.4506583199647));
#1258=CARTESIAN_POINT('Ctrl Pts',(-1.17629779730867,-0.280070428036372,
11.2524526119429));
#1259=CARTESIAN_POINT('Ctrl Pts',(-1.15916399681784,-0.272148877328986,
11.0043905494234));
#1260=CARTESIAN_POINT('Ctrl Pts',(-1.15395474044239,-0.262374949199888,
10.9417229529675));
#1261=CARTESIAN_POINT('Ctrl Pts',(-1.1479890625066,-0.24488577076104,10.8808564886891));
#1262=CARTESIAN_POINT('Ctrl Pts',(-1.54968135909652,-0.0409602080265342,
11.6270141824359));
#1263=CARTESIAN_POINT('Ctrl Pts',(-1.54847252798671,-0.157725411155949,
11.4127567911888));
#1264=CARTESIAN_POINT('Ctrl Pts',(-1.52825854935909,-0.221670670763767,
11.2187354963609));
#1265=CARTESIAN_POINT('Ctrl Pts',(-1.47763051532817,-0.216471996380505,
10.9722454872202));
#1266=CARTESIAN_POINT('Ctrl Pts',(-1.46203695635401,-0.207500995850751,
10.9100414612299));
#1267=CARTESIAN_POINT('Ctrl Pts',(-1.44407338587568,-0.191059749931482,
10.8497800210737));
#1268=CARTESIAN_POINT('Ctrl Pts',(-2.01583820388797,0.228587981319414,11.4713904627574));
#1269=CARTESIAN_POINT('Ctrl Pts',(-2.01361082037712,0.117184467847038,11.2540374985435));
#1270=CARTESIAN_POINT('Ctrl Pts',(-1.976041228332,0.0313979079159667,11.0726262843367));
#1271=CARTESIAN_POINT('Ctrl Pts',(-1.88275069075869,0.0198489840344711,
10.8358055055625));
#1272=CARTESIAN_POINT('Ctrl Pts',(-1.8539461581478,0.0234429857829319,10.776705891266));
#1273=CARTESIAN_POINT('Ctrl Pts',(-1.82072868405618,0.0332563398207278,
10.7202710662717));
#1274=CARTESIAN_POINT('Ctrl Pts',(-2.32708603505745,0.632295527304158,11.2383098024092));
#1275=CARTESIAN_POINT('Ctrl Pts',(-2.32414691803994,0.522002611228899,11.0203156344892));
#1276=CARTESIAN_POINT('Ctrl Pts',(-2.2760043747034,0.416955823584057,10.8500243179376));
#1277=CARTESIAN_POINT('Ctrl Pts',(-2.15290723100578,0.371479721529596,10.6327914046143));
#1278=CARTESIAN_POINT('Ctrl Pts',(-2.11522385783291,0.364404141934126,10.5798518759789));
#1279=CARTESIAN_POINT('Ctrl Pts',(-2.07193328599787,0.36170820576441,10.5306392930533));
#1280=CARTESIAN_POINT('Ctrl Pts',(-2.4,0.949630553984702,11.0550963393319));
#1281=CARTESIAN_POINT('Ctrl Pts',(-2.39687477496267,0.833331198651929,10.8405699907341));
#1282=CARTESIAN_POINT('Ctrl Pts',(-2.34687701406971,0.727723124739695,10.67060273296));
#1283=CARTESIAN_POINT('Ctrl Pts',(-2.21598922779193,0.645184654882449,10.4747677876645));
#1284=CARTESIAN_POINT('Ctrl Pts',(-2.17619013950925,0.62705970558851,10.4282076155989));
#1285=CARTESIAN_POINT('Ctrl Pts',(-2.13060749230733,0.612107324956371,10.386071294183));
#1286=CARTESIAN_POINT('Ctrl Pts',(-2.4,1.1083379983552,10.9634665536022));
#1287=CARTESIAN_POINT('Ctrl Pts',(-2.39687477496267,0.986370520009191,10.7522126973519));
#1288=CARTESIAN_POINT('Ctrl Pts',(-2.34687477992973,0.886370515707597,10.5790076190785));
#1289=CARTESIAN_POINT('Ctrl Pts',(-2.21598245736854,0.780936875505451,10.3963912065447));
#1290=CARTESIAN_POINT('Ctrl Pts',(-2.17618494983726,0.756244491418456,10.3536227447247));
#1291=CARTESIAN_POINT('Ctrl Pts',(-2.13060749230733,0.734260833189426,10.3155459333222));
#1292=CARTESIAN_POINT('',(-2.4,1.10833799835519,10.9634665536022));
#1293=CARTESIAN_POINT('Ctrl Pts',(-2.4,1.1083379983552,10.9634665536022));
#1294=CARTESIAN_POINT('Ctrl Pts',(-2.39687477496267,0.986370520009191,10.7522126973519));
#1295=CARTESIAN_POINT('Ctrl Pts',(-2.34687477992973,0.886370515707597,10.5790076190785));
#1296=CARTESIAN_POINT('Ctrl Pts',(-2.24452588948147,0.803928582678518,10.4362140095317));
#1297=CARTESIAN_POINT('Ctrl Pts',(-2.23890208973534,0.799589323544268,10.4286981926154));
#1298=CARTESIAN_POINT('Ctrl Pts',(-2.23312861566276,0.795320208047663,10.4213038680331));
#1299=CARTESIAN_POINT('Origin',(-1.,1.10833799835519,10.9634665536022));
#1300=CARTESIAN_POINT('Ctrl Pts',(-2.4,1.10833799835519,10.9634665536022));
#1301=CARTESIAN_POINT('Ctrl Pts',(-2.39687477496267,1.2303054767012,11.1747204098526));
#1302=CARTESIAN_POINT('Ctrl Pts',(-2.34687477992973,1.33030548100279,11.3479254881259));
#1303=CARTESIAN_POINT('Ctrl Pts',(-2.04442299891386,1.57393010033994,11.7698956857114));
#1304=CARTESIAN_POINT('Ctrl Pts',(-1.6277563322472,1.64059676700661,11.8853657395493));
#1305=CARTESIAN_POINT('Ctrl Pts',(-1.00000001490116,1.60833801125998,11.8294919499361));
#1306=CARTESIAN_POINT('Ctrl Pts',(-2.4,0.949630553984701,11.0550963393319));
#1307=CARTESIAN_POINT('Ctrl Pts',(-2.39687477496267,1.07726615534394,11.2630777032348));
#1308=CARTESIAN_POINT('Ctrl Pts',(-2.34687519206933,1.17165788236464,11.4395207219059));
#1309=CARTESIAN_POINT('Ctrl Pts',(-2.04444924871917,1.46818792811662,11.8309459573092));
#1310=CARTESIAN_POINT('Ctrl Pts',(-1.6277563322472,1.59336240856301,11.9126365091117));
#1311=CARTESIAN_POINT('Ctrl Pts',(-1.00000001490116,1.60833801125998,11.8294919499361));
#1312=CARTESIAN_POINT('Ctrl Pts',(-2.32708587883824,0.632295446680298,11.2383098489574));
#1313=CARTESIAN_POINT('Ctrl Pts',(-2.32414676182073,0.765937487297049,11.4428233935381));
#1314=CARTESIAN_POINT('Ctrl Pts',(-2.27600402656859,0.86089123067059,11.6189419319167));
#1315=CARTESIAN_POINT('Ctrl Pts',(-1.99156629384501,1.24305491403255,11.9609265635941));
#1316=CARTESIAN_POINT('Ctrl Pts',(-1.59037334789764,1.478171436119,11.9791420480605));
#1317=CARTESIAN_POINT('Ctrl Pts',(-1.00000001490116,1.60833801125998,11.8294919499361));
#1318=CARTESIAN_POINT('Ctrl Pts',(-2.01583824688333,0.228587895638918,11.4713905122251));
#1319=CARTESIAN_POINT('Ctrl Pts',(-2.01361086337248,0.361119338858553,11.6765452605119));
#1320=CARTESIAN_POINT('Ctrl Pts',(-1.97604207371729,0.475331646468868,11.8415448616442));
#1321=CARTESIAN_POINT('Ctrl Pts',(-1.76046960753675,0.935904598473795,12.1382598809637));
#1322=CARTESIAN_POINT('Ctrl Pts',(-1.44740947903163,1.29201447853413,12.0866198176337));
#1323=CARTESIAN_POINT('Ctrl Pts',(-1.00000001490116,1.60833801125998,11.8294919499361));
#1324=CARTESIAN_POINT('Ctrl Pts',(-1.54968131219187,-0.040960144992404,
11.6270141460431));
#1325=CARTESIAN_POINT('Ctrl Pts',(-1.54847248108207,0.0862096085701907,
11.8352644672967));
#1326=CARTESIAN_POINT('Ctrl Pts',(-1.52825809256387,0.22226498620291,11.9876529660716));
#1327=CARTESIAN_POINT('Ctrl Pts',(-1.41127583087307,0.721521388173315,12.2620340851404));
#1328=CARTESIAN_POINT('Ctrl Pts',(-1.24281577853088,1.14128328978195,12.173644510035));
#1329=CARTESIAN_POINT('Ctrl Pts',(-1.00000001490116,1.60833801125998,11.8294919499361));
#1330=CARTESIAN_POINT('Ctrl Pts',(-1.18325087544319,-0.104111692345227,
11.663474708907));
#1331=CARTESIAN_POINT('Ctrl Pts',(-1.18284179014199,0.0205623159550337,
11.8731659493597));
#1332=CARTESIAN_POINT('Ctrl Pts',(-1.17629773881238,0.163865022597125,12.0213702007801));
#1333=CARTESIAN_POINT('Ctrl Pts',(-1.13670669442634,0.669415480980885,12.2921174446843));
#1334=CARTESIAN_POINT('Ctrl Pts',(-1.08217313091188,1.09694385500335,12.1992438946401));
#1335=CARTESIAN_POINT('Ctrl Pts',(-1.00000001490116,1.60833801125998,11.8294919499361));
#1336=CARTESIAN_POINT('Ctrl Pts',(-0.816741773957668,-0.104111486964127,
11.6634745903301));
#1337=CARTESIAN_POINT('Ctrl Pts',(-0.817150872374852,0.0205625213361337,
11.8731658307828));
#1338=CARTESIAN_POINT('Ctrl Pts',(-0.823695756009255,0.163865205307567,
12.0213700952922));
#1339=CARTESIAN_POINT('Ctrl Pts',(-0.863289003548611,0.669415621967603,
12.2921173632856));
#1340=CARTESIAN_POINT('Ctrl Pts',(-0.917826913219284,1.09694385500335,12.1992438946401));
#1341=CARTESIAN_POINT('Ctrl Pts',(-1.00000001490116,1.60833801125998,11.8294919499361));
#1342=CARTESIAN_POINT('Ctrl Pts',(-0.450311809169586,-0.0409598636097574,
11.6270139835867));
#1343=CARTESIAN_POINT('Ctrl Pts',(-0.451520653395378,0.0835529704174927,
11.8367982780493));
#1344=CARTESIAN_POINT('Ctrl Pts',(-0.47173576080244,0.225246540624993,11.9859315648235));
#1345=CARTESIAN_POINT('Ctrl Pts',(-0.588716285563692,0.715194984304481,
12.2656866361171));
#1346=CARTESIAN_POINT('Ctrl Pts',(-0.757184265600283,1.12931846911933,12.1805524024654));
#1347=CARTESIAN_POINT('Ctrl Pts',(-1.00000001490116,1.60833801125998,11.8294919499361));
#1348=CARTESIAN_POINT('Ctrl Pts',(0.0158479611408791,0.228589279043703,
11.4713897135159));
#1349=CARTESIAN_POINT('Ctrl Pts',(0.0136205645140399,0.352485733773467,
11.6815298747319));
#1350=CARTESIAN_POINT('Ctrl Pts',(-0.023949390413017,0.485022115491828,
11.8359500667452));
#1351=CARTESIAN_POINT('Ctrl Pts',(-0.23952905738886,0.915344107790701,12.1501304857942));
#1352=CARTESIAN_POINT('Ctrl Pts',(-0.55259056509954,1.25312881138061,12.1090704680324));
#1353=CARTESIAN_POINT('Ctrl Pts',(-1.00000001490116,1.60833801125998,11.8294919499361));
#1354=CARTESIAN_POINT('Ctrl Pts',(0.327095899708934,0.632295780399006,11.2383096562848));
#1355=CARTESIAN_POINT('Ctrl Pts',(0.324156769575441,0.755310142874377,11.4489590937013));
#1356=CARTESIAN_POINT('Ctrl Pts',(0.276013064575823,0.872816743949907,11.6120567336146));
#1357=CARTESIAN_POINT('Ctrl Pts',(-0.00841755171253089,1.21774875500691,
11.9755370813198));
#1358=CARTESIAN_POINT('Ctrl Pts',(-0.409626696233523,1.43031215346852,12.006773617782));
#1359=CARTESIAN_POINT('Ctrl Pts',(-1.00000001490116,1.60833801125998,11.8294919499361));
#1360=CARTESIAN_POINT('Ctrl Pts',(0.400016950838346,0.949634461612431,11.055094083262));
#1361=CARTESIAN_POINT('Ctrl Pts',(0.396891712685035,1.07195622390098,11.2661433935827));
#1362=CARTESIAN_POINT('Ctrl Pts',(0.346889983835883,1.17762396685406,11.43607620142));
#1363=CARTESIAN_POINT('Ctrl Pts',(0.0444439668609752,1.45553741650639,11.8382497335928));
#1364=CARTESIAN_POINT('Ctrl Pts',(-0.372243711883972,1.56943276723777,11.9264522939725));
#1365=CARTESIAN_POINT('Ctrl Pts',(-1.00000001490116,1.60833801125998,11.8294919499361));
#1366=CARTESIAN_POINT('Ctrl Pts',(0.400016950838346,1.26704153509796,10.8718390239424));
#1367=CARTESIAN_POINT('Ctrl Pts',(0.396891712685035,1.38865472950142,11.0832974261224));
#1368=CARTESIAN_POINT('Ctrl Pts',(0.346889983835883,1.48298699515153,11.2597747748319));
#1369=CARTESIAN_POINT('Ctrl Pts',(0.0444439668609751,1.69232278417349,11.70154163783));
#1370=CARTESIAN_POINT('Ctrl Pts',(-0.37224371188397,1.71176076677545,11.8442791851262));
#1371=CARTESIAN_POINT('Ctrl Pts',(-1.00000001490116,1.60833801125998,11.8294919499361));
#1372=CARTESIAN_POINT('Ctrl Pts',(0.327095899708934,1.58438021631138,10.6886234509196));
#1373=CARTESIAN_POINT('Ctrl Pts',(0.324156769575441,1.70530081052802,10.9004817260038));
#1374=CARTESIAN_POINT('Ctrl Pts',(0.276013064575823,1.78779421805568,11.0837942426372));
#1375=CARTESIAN_POINT('Ctrl Pts',(-0.0084175517125312,1.93011144567297,
11.5642542901031));
#1376=CARTESIAN_POINT('Ctrl Pts',(-0.409626696233524,1.85088138054469,11.7639578613167));
#1377=CARTESIAN_POINT('Ctrl Pts',(-1.00000001490116,1.60833801125998,11.8294919499361));
#1378=CARTESIAN_POINT('Ctrl Pts',(0.0158479611408792,1.98808671766669,10.4555433936885));
#1379=CARTESIAN_POINT('Ctrl Pts',(0.0136205645140399,2.10812521962893,10.6679109449733));
#1380=CARTESIAN_POINT('Ctrl Pts',(-0.0239493904130171,2.17558884651376,
10.8599009095067));
#1381=CARTESIAN_POINT('Ctrl Pts',(-0.23952905738886,2.23251609288918,11.3896608856286));
#1382=CARTESIAN_POINT('Ctrl Pts',(-0.552590565099541,2.0280647226326,11.6616610110663));
#1383=CARTESIAN_POINT('Ctrl Pts',(-1.00000001490116,1.60833801125998,11.8294919499361));
#1384=CARTESIAN_POINT('Ctrl Pts',(-0.450311809169586,2.25763586032015,10.2999191236177));
#1385=CARTESIAN_POINT('Ctrl Pts',(-0.451520653395378,2.37705798298491,10.5126425416558));
#1386=CARTESIAN_POINT('Ctrl Pts',(-0.47173576080244,2.43536442138059,10.7099194114284));
#1387=CARTESIAN_POINT('Ctrl Pts',(-0.588716285563692,2.4326652163754,11.2741047353058));
#1388=CARTESIAN_POINT('Ctrl Pts',(-0.757184265600283,2.15187506489388,11.5901790766333));
#1389=CARTESIAN_POINT('Ctrl Pts',(-1.00000001490116,1.60833801125998,11.8294919499361));
#1390=CARTESIAN_POINT('Ctrl Pts',(-0.816741773957668,2.32078748367452,10.2634585168743));
#1391=CARTESIAN_POINT('Ctrl Pts',(-0.817150872374852,2.44004843206627,10.4762749889223));
#1392=CARTESIAN_POINT('Ctrl Pts',(-0.823695756009255,2.49674575669802,10.6744808809597));
#1393=CARTESIAN_POINT('Ctrl Pts',(-0.863289003548611,2.47844457871228,11.2476740081372));
#1394=CARTESIAN_POINT('Ctrl Pts',(-0.917826913219284,2.18424967900987,11.5714875844585));
#1395=CARTESIAN_POINT('Ctrl Pts',(-1.00000001490116,1.60833801125998,11.8294919499361));
#1396=CARTESIAN_POINT('Ctrl Pts',(-1.18325087544319,2.32078768905562,10.2634583982974));
#1397=CARTESIAN_POINT('Ctrl Pts',(-1.18284179014199,2.44004863744737,10.4762748703455));
#1398=CARTESIAN_POINT('Ctrl Pts',(-1.17629773881238,2.49674593940846,10.6744807754717));
#1399=CARTESIAN_POINT('Ctrl Pts',(-1.13670669442634,2.47844471969899,11.2476739267385));
#1400=CARTESIAN_POINT('Ctrl Pts',(-1.08217313091188,2.18424967900987,11.5714875844585));
#1401=CARTESIAN_POINT('Ctrl Pts',(-1.00000001490116,1.60833801125998,11.8294919499361));
#1402=CARTESIAN_POINT('Ctrl Pts',(-1.54968131219187,2.25763614170279,10.2999189611613));
#1403=CARTESIAN_POINT('Ctrl Pts',(-1.54847248108207,2.37440134483221,10.5141763524084));
#1404=CARTESIAN_POINT('Ctrl Pts',(-1.52825809256387,2.43834597580268,10.7081980101802));
#1405=CARTESIAN_POINT('Ctrl Pts',(-1.41127583087307,2.42633881250656,11.2777572862824));
#1406=CARTESIAN_POINT('Ctrl Pts',(-1.24281577853088,2.13991024423126,11.5970869690637));
#1407=CARTESIAN_POINT('Ctrl Pts',(-1.00000001490116,1.60833801125998,11.8294919499361));
#1408=CARTESIAN_POINT('Ctrl Pts',(-2.01583824688333,1.98808810107147,10.4555425949794));
#1409=CARTESIAN_POINT('Ctrl Pts',(-2.01361086337248,2.09949161454385,10.6728955591932));
#1410=CARTESIAN_POINT('Ctrl Pts',(-1.97604207371729,2.18527931553672,10.8543061146077));
#1411=CARTESIAN_POINT('Ctrl Pts',(-1.76046960753675,2.21195560220608,11.4015314904591));
#1412=CARTESIAN_POINT('Ctrl Pts',(-1.44740947903163,1.98917905547908,11.684111661465));
#1413=CARTESIAN_POINT('Ctrl Pts',(-1.00000001490116,1.60833801125998,11.8294919499361));
#1414=CARTESIAN_POINT('Ctrl Pts',(-2.32708587883824,1.58438055003009,10.688623258247));
#1415=CARTESIAN_POINT('Ctrl Pts',(-2.32414676182073,1.69467346610535,10.906617426167));
#1416=CARTESIAN_POINT('Ctrl Pts',(-2.27600402656859,1.799719731335,11.0769090443352));
#1417=CARTESIAN_POINT('Ctrl Pts',(-1.99156629384501,1.90480528664733,11.5788648078287));
#1418=CARTESIAN_POINT('Ctrl Pts',(-1.59037334789765,1.80302209789421,11.7915894310382));
#1419=CARTESIAN_POINT('Ctrl Pts',(-1.00000001490116,1.60833801125998,11.8294919499361));
#1420=CARTESIAN_POINT('Ctrl Pts',(-2.4,1.26704544272569,10.8718367678725));
#1421=CARTESIAN_POINT('Ctrl Pts',(-2.39687477496267,1.38334479805846,11.0863631164703));
#1422=CARTESIAN_POINT('Ctrl Pts',(-2.34687519206933,1.48895307964095,11.2563302543459));
#1423=CARTESIAN_POINT('Ctrl Pts',(-2.04444924871917,1.67967227256326,11.7088454141136));
#1424=CARTESIAN_POINT('Ctrl Pts',(-1.6277563322472,1.68783112545021,11.8580949699869));
#1425=CARTESIAN_POINT('Ctrl Pts',(-1.00000001490116,1.60833801125998,11.8294919499361));
#1426=CARTESIAN_POINT('Ctrl Pts',(-2.4,1.10833799835519,10.9634665536022));
#1427=CARTESIAN_POINT('Ctrl Pts',(-2.39687477496267,1.2303054767012,11.1747204098526));
#1428=CARTESIAN_POINT('Ctrl Pts',(-2.34687477992973,1.33030548100279,11.3479254881259));
#1429=CARTESIAN_POINT('Ctrl Pts',(-2.04442299891386,1.57393010033994,11.7698956857114));
#1430=CARTESIAN_POINT('Ctrl Pts',(-1.6277563322472,1.64059676700661,11.8853657395493));
#1431=CARTESIAN_POINT('Ctrl Pts',(-1.00000001490116,1.60833801125998,11.8294919499361));
#1432=CARTESIAN_POINT('',(-1.00000001490116,1.60833801125998,11.8294919499361));
#1433=CARTESIAN_POINT('Ctrl Pts',(-2.4,1.10833799835519,10.9634665536022));
#1434=CARTESIAN_POINT('Ctrl Pts',(-2.39687477496267,1.2303054767012,11.1747204098526));
#1435=CARTESIAN_POINT('Ctrl Pts',(-2.34687477992973,1.33030548100279,11.3479254881259));
#1436=CARTESIAN_POINT('Ctrl Pts',(-2.04442299891386,1.57393010033994,11.7698956857114));
#1437=CARTESIAN_POINT('Ctrl Pts',(-1.6277563322472,1.64059676700661,11.8853657395493));
#1438=CARTESIAN_POINT('Ctrl Pts',(-1.00000001490116,1.60833801125998,11.8294919499361));
#1439=CARTESIAN_POINT('Origin',(3.5,1.,3.5));
#1440=CARTESIAN_POINT('',(1.45,2.,3.5));
#1441=CARTESIAN_POINT('',(1.45,0.,3.5));
#1442=CARTESIAN_POINT('',(1.45,0.5,3.5));
#1443=CARTESIAN_POINT('',(2.75,2.,3.5));
#1444=CARTESIAN_POINT('',(3.875,2.,3.5));
#1445=CARTESIAN_POINT('',(4.25,2.,3.5));
#1446=CARTESIAN_POINT('Origin',(3.5,1.,3.5));
#1447=CARTESIAN_POINT('',(5.55,2.,3.5));
#1448=CARTESIAN_POINT('',(3.875,2.,3.5));
#1449=CARTESIAN_POINT('',(5.55,0.,3.5));
#1450=CARTESIAN_POINT('',(5.55,1.5,3.5));
#1451=CARTESIAN_POINT('',(4.25,1.11022302462516E-16,3.5));
#1452=CARTESIAN_POINT('',(3.125,0.,3.5));
#1453=CARTESIAN_POINT('',(2.75,1.11022302462516E-16,3.5));
#1454=CARTESIAN_POINT('Origin',(3.5,1.,3.5));
#1455=CARTESIAN_POINT('',(3.125,0.,3.5));
#1456=CARTESIAN_POINT('',(4.835,0.5,3.5));
#1457=CARTESIAN_POINT('Origin',(5.,0.5,3.5));
#1458=CARTESIAN_POINT('',(4.835,1.5,3.5));
#1459=CARTESIAN_POINT('Origin',(5.,1.5,3.5));
#1460=CARTESIAN_POINT('',(2.165,1.5,3.5));
#1461=CARTESIAN_POINT('Origin',(2.,1.5,3.5));
#1462=CARTESIAN_POINT('',(2.165,0.5,3.5));
#1463=CARTESIAN_POINT('Origin',(2.,0.5,3.5));
#1464=CARTESIAN_POINT('Origin',(2.75,0.,-0.65));
#1465=CARTESIAN_POINT('',(5.55,0.,3.92));
#1466=CARTESIAN_POINT('',(5.55,0.,-0.65));
#1467=CARTESIAN_POINT('',(4.25,0.,3.92));
#1468=CARTESIAN_POINT('',(5.75,0.,3.92));
#1469=CARTESIAN_POINT('',(4.25,0.,-0.65));
#1470=CARTESIAN_POINT('Origin',(5.55,2.,-0.65));
#1471=CARTESIAN_POINT('',(5.55,2.,3.92));
#1472=CARTESIAN_POINT('',(5.55,2.,-0.65));
#1473=CARTESIAN_POINT('',(5.55,1.5,3.92));
#1474=CARTESIAN_POINT('Origin',(4.25,2.,-0.65));
#1475=CARTESIAN_POINT('',(4.25,2.,3.92));
#1476=CARTESIAN_POINT('',(4.25,2.,10.35));
#1477=CARTESIAN_POINT('',(1.25,2.,3.92));
#1478=CARTESIAN_POINT('Origin',(3.5,1.,3.92));
#1479=CARTESIAN_POINT('',(1.45,2.,3.92));
#1480=CARTESIAN_POINT('',(1.45,0.,3.92));
#1481=CARTESIAN_POINT('',(1.45,0.5,3.92));
#1482=CARTESIAN_POINT('',(2.75,0.,3.92));
#1483=CARTESIAN_POINT('',(5.75,0.,3.92));
#1484=CARTESIAN_POINT('',(2.25,1.,3.92));
#1485=CARTESIAN_POINT('Origin',(3.5,1.,3.92));
#1486=CARTESIAN_POINT('',(2.75,2.,3.92));
#1487=CARTESIAN_POINT('Origin',(3.5,1.,3.92));
#1488=CARTESIAN_POINT('',(1.25,2.,3.92));
#1489=CARTESIAN_POINT('',(2.165,1.5,3.92));
#1490=CARTESIAN_POINT('Origin',(2.,1.5,3.92));
#1491=CARTESIAN_POINT('',(2.165,0.5,3.92));
#1492=CARTESIAN_POINT('Origin',(2.,0.5,3.92));
#1493=CARTESIAN_POINT('Origin',(3.5,1.,3.92));
#1494=CARTESIAN_POINT('Origin',(3.5,1.,3.92));
#1495=CARTESIAN_POINT('',(4.835,0.5,3.92));
#1496=CARTESIAN_POINT('Origin',(5.,0.5,3.92));
#1497=CARTESIAN_POINT('',(4.835,1.5,3.92));
#1498=CARTESIAN_POINT('Origin',(5.,1.5,3.92));
#1499=CARTESIAN_POINT('Origin',(5.,0.5,2.5));
#1500=CARTESIAN_POINT('',(4.835,0.5,2.5));
#1501=CARTESIAN_POINT('Origin',(5.,1.5,2.5));
#1502=CARTESIAN_POINT('',(4.835,1.5,2.5));
#1503=CARTESIAN_POINT('Origin',(2.,1.5,2.92));
#1504=CARTESIAN_POINT('',(2.165,1.5,2.92));
#1505=CARTESIAN_POINT('Origin',(2.,0.5,2.92));
#1506=CARTESIAN_POINT('',(2.165,0.5,2.92));
#1507=CARTESIAN_POINT('Origin',(4.,0.5,10.35));
#1508=CARTESIAN_POINT('',(4.154,0.5,8.74));
#1509=CARTESIAN_POINT('Origin',(4.,0.5,8.74));
#1510=CARTESIAN_POINT('',(4.154,0.5,10.35));
#1511=CARTESIAN_POINT('',(4.154,0.5,10.35));
#1512=CARTESIAN_POINT('Origin',(4.,0.5,10.35));
#1513=CARTESIAN_POINT('Origin',(3.,0.5,10.35));
#1514=CARTESIAN_POINT('',(3.154,0.5,8.74));
#1515=CARTESIAN_POINT('Origin',(3.,0.5,8.74));
#1516=CARTESIAN_POINT('',(3.154,0.5,10.35));
#1517=CARTESIAN_POINT('',(3.154,0.5,10.35));
#1518=CARTESIAN_POINT('Origin',(3.,0.5,10.35));
#1519=CARTESIAN_POINT('Origin',(4.,1.5,10.35));
#1520=CARTESIAN_POINT('',(4.154,1.5,8.74));
#1521=CARTESIAN_POINT('Origin',(4.,1.5,8.74));
#1522=CARTESIAN_POINT('',(4.154,1.5,10.35));
#1523=CARTESIAN_POINT('',(4.154,1.5,10.35));
#1524=CARTESIAN_POINT('Origin',(4.,1.5,10.35));
#1525=CARTESIAN_POINT('Origin',(3.,1.5,10.35));
#1526=CARTESIAN_POINT('',(3.154,1.5,8.74));
#1527=CARTESIAN_POINT('Origin',(3.,1.5,8.74));
#1528=CARTESIAN_POINT('',(3.154,1.5,10.35));
#1529=CARTESIAN_POINT('',(3.154,1.5,10.35));
#1530=CARTESIAN_POINT('Origin',(3.,1.5,10.35));
#1531=CARTESIAN_POINT('Origin',(3.5,1.,8.74));
#1532=CARTESIAN_POINT('Origin',(3.5,1.,8.74));
#1533=CARTESIAN_POINT('Origin',(3.5,1.,8.74));
#1534=CARTESIAN_POINT('Origin',(3.5,1.,8.74));
#1535=CARTESIAN_POINT('Origin',(3.5,1.,-0.65));
#1536=CARTESIAN_POINT('',(2.25,1.,10.35));
#1537=CARTESIAN_POINT('Origin',(3.5,1.,10.35));
#1538=CARTESIAN_POINT('',(2.25,1.,-0.65));
#1539=CARTESIAN_POINT('',(2.75,0.,10.35));
#1540=CARTESIAN_POINT('',(2.75,2.,-0.65));
#1541=CARTESIAN_POINT('Origin',(4.25,2.,-0.65));
#1542=CARTESIAN_POINT('',(1.45,2.,-0.65));
#1543=CARTESIAN_POINT('Origin',(1.45,0.,-0.65));
#1544=CARTESIAN_POINT('',(1.45,0.,-0.65));
#1545=CARTESIAN_POINT('Origin',(2.75,0.,-0.65));
#1546=CARTESIAN_POINT('Origin',(3.5,1.,10.35));
#1547=UNCERTAINTY_MEASURE_WITH_UNIT(LENGTH_MEASURE(0.001),#1551,
'DISTANCE_ACCURACY_VALUE',
'Maximum model space distance between geometric entities at asserted c
onnectivities');
#1548=UNCERTAINTY_MEASURE_WITH_UNIT(LENGTH_MEASURE(0.001),#1551,
'DISTANCE_ACCURACY_VALUE',
'Maximum model space distance between geometric entities at asserted c
onnectivities');
#1549=(
GEOMETRIC_REPRESENTATION_CONTEXT(3)
GLOBAL_UNCERTAINTY_ASSIGNED_CONTEXT((#1547))
GLOBAL_UNIT_ASSIGNED_CONTEXT((#1551,#1553,#1554))
REPRESENTATION_CONTEXT('','3D')
);
#1550=(
GEOMETRIC_REPRESENTATION_CONTEXT(3)
GLOBAL_UNCERTAINTY_ASSIGNED_CONTEXT((#1548))
GLOBAL_UNIT_ASSIGNED_CONTEXT((#1551,#1553,#1554))
REPRESENTATION_CONTEXT('','3D')
);
#1551=(
LENGTH_UNIT()
NAMED_UNIT(*)
SI_UNIT(.CENTI.,.METRE.)
);
#1552=(
LENGTH_UNIT()
NAMED_UNIT(*)
SI_UNIT($,.METRE.)
);
#1553=(
NAMED_UNIT(*)
PLANE_ANGLE_UNIT()
SI_UNIT($,.RADIAN.)
);
#1554=(
NAMED_UNIT(*)
SI_UNIT($,.STERADIAN.)
SOLID_ANGLE_UNIT()
);
#1555=SHAPE_DEFINITION_REPRESENTATION(#1556,#1557);
#1556=PRODUCT_DEFINITION_SHAPE('',$,#1559);
#1557=SHAPE_REPRESENTATION('',(#740),#1549);
#1558=PRODUCT_DEFINITION_CONTEXT('part definition',#1563,'design');
#1559=PRODUCT_DEFINITION('LegsNew','LegsNew v15',#1560,#1558);
#1560=PRODUCT_DEFINITION_FORMATION('',$,#1565);
#1561=PRODUCT_RELATED_PRODUCT_CATEGORY('LegsNew v15','LegsNew v15',(#1565));
#1562=APPLICATION_PROTOCOL_DEFINITION('international standard',
'automotive_design',2009,#1563);
#1563=APPLICATION_CONTEXT(
'Core Data for Automotive Mechanical Design Process');
#1564=PRODUCT_CONTEXT('part definition',#1563,'mechanical');
#1565=PRODUCT('LegsNew','LegsNew v15',$,(#1564));
#1566=PRESENTATION_STYLE_ASSIGNMENT((#1567));
#1567=SURFACE_STYLE_USAGE(.BOTH.,#1568);
#1568=SURFACE_SIDE_STYLE('',(#1569));
#1569=SURFACE_STYLE_FILL_AREA(#1570);
#1570=FILL_AREA_STYLE('Steel - Satin',(#1571));
#1571=FILL_AREA_STYLE_COLOUR('Steel - Satin',#1572);
#1572=COLOUR_RGB('Steel - Satin',0.627450980392157,0.627450980392157,0.627450980392157);
ENDSEC;
END-ISO-10303-21;
